<mxfile host="Electron" agent="Mozilla/5.0 (Macintosh; Intel Mac OS X 10_15_7) AppleWebKit/537.36 (KHTML, like Gecko) draw.io/25.0.2 Chrome/128.0.6613.186 Electron/32.2.5 Safari/537.36" version="25.0.2">
  <diagram id="31b32b95-0358-9bc7-6ba0-a27c054ed1a7" name="Page-1">
    <mxGraphModel dx="1418" dy="765" grid="1" gridSize="10" guides="1" tooltips="1" connect="1" arrows="1" fold="1" page="1" pageScale="1" pageWidth="827" pageHeight="1169" background="none" math="0" shadow="0">
      <root>
        <mxCell id="0" />
        <mxCell id="1" parent="0" />
        <mxCell id="yRxVq_1gK0lk5HWuicpu-95" value="IBM Cloud" style="shape=mxgraph.ibm.box;prType=cloud;fontStyle=0;verticalAlign=top;align=left;spacingLeft=32;spacingTop=4;fillColor=none;rounded=0;whiteSpace=wrap;html=1;strokeColor=#4376BB;strokeWidth=3;dashed=0;container=1;spacing=-4;collapsible=0;expand=0;recursiveResize=0;" parent="1" vertex="1">
          <mxGeometry x="190" y="170" width="780" height="600" as="geometry" />
        </mxCell>
        <mxCell id="yRxVq_1gK0lk5HWuicpu-96" value="Resource Group" style="fontStyle=0;verticalAlign=top;align=center;spacingTop=-2;fillColor=none;rounded=0;whiteSpace=wrap;html=1;strokeColor=#919191;strokeWidth=2;dashed=1;container=1;collapsible=0;expand=0;recursiveResize=0;" parent="1" vertex="1">
          <mxGeometry x="220" y="200" width="720" height="540" as="geometry" />
        </mxCell>
        <mxCell id="yRxVq_1gK0lk5HWuicpu-97" value="Region" style="shape=mxgraph.ibm.box;prType=region;fontStyle=0;verticalAlign=top;align=left;spacingLeft=32;spacingTop=4;fillColor=none;rounded=0;whiteSpace=wrap;html=1;strokeColor=#919191;strokeWidth=2;dashed=0;container=1;spacing=-4;collapsible=0;expand=0;recursiveResize=0;" parent="1" vertex="1">
          <mxGeometry x="240" y="230" width="680" height="490" as="geometry" />
        </mxCell>
        <mxCell id="yRxVq_1gK0lk5HWuicpu-98" value="VPC" style="shape=mxgraph.ibm.box;prType=vpc;fontStyle=0;verticalAlign=top;align=left;spacingLeft=32;spacingTop=4;fillColor=none;rounded=0;whiteSpace=wrap;html=1;strokeColor=#4376BB;strokeWidth=2;dashed=0;container=1;spacing=-4;collapsible=0;expand=0;recursiveResize=0;" parent="1" vertex="1">
          <mxGeometry x="270" y="270" width="630" height="430" as="geometry" />
        </mxCell>
        <mxCell id="yRxVq_1gK0lk5HWuicpu-99" value="Single Zone" style="shape=mxgraph.ibm.box;prType=zone;fontStyle=0;verticalAlign=top;align=left;spacingLeft=32;spacingTop=4;fillColor=none;rounded=0;whiteSpace=wrap;html=1;strokeColor=#919191;strokeWidth=1;dashed=0;container=1;spacing=-4;collapsible=0;expand=0;recursiveResize=0;" parent="1" vertex="1">
          <mxGeometry x="300" y="300" width="570" height="370" as="geometry" />
        </mxCell>
        <mxCell id="yRxVq_1gK0lk5HWuicpu-100" value="Subnet" style="shape=mxgraph.ibm.box;prType=subnet;fontStyle=0;verticalAlign=top;align=left;spacingLeft=32;spacingTop=4;fillColor=none;rounded=0;whiteSpace=wrap;html=1;strokeColor=#00882B;strokeWidth=1;dashed=0;container=1;spacing=-4;collapsible=0;expand=0;recursiveResize=0;" parent="yRxVq_1gK0lk5HWuicpu-99" vertex="1">
          <mxGeometry x="40" y="40" width="500" height="310" as="geometry" />
        </mxCell>
        <mxCell id="yRxVq_1gK0lk5HWuicpu-103" value="" style="fontStyle=0;verticalAlign=top;align=center;spacingTop=-2;fillColor=none;rounded=0;whiteSpace=wrap;html=1;strokeColor=#FF0000;strokeWidth=2;dashed=1;container=1;collapsible=0;expand=0;recursiveResize=0;" parent="yRxVq_1gK0lk5HWuicpu-100" vertex="1">
          <mxGeometry x="60" y="130" width="400" height="160" as="geometry" />
        </mxCell>
        <mxCell id="fXSXnaFAM1KutNhnym3G-11" value="&lt;font style=&quot;font-size: 17px;&quot; color=&quot;#4277bb&quot;&gt;ROKS Cluster&lt;/font&gt;" style="text;html=1;align=center;verticalAlign=middle;whiteSpace=wrap;rounded=0;fontColor=#1c3392;" parent="yRxVq_1gK0lk5HWuicpu-103" vertex="1">
          <mxGeometry x="120" width="160" height="30" as="geometry" />
        </mxCell>
        <mxCell id="JeMylpXorUwbxhyJ5Kl_-1" value="GPU Worker Pool" style="fontStyle=0;verticalAlign=top;align=center;spacingTop=-2;fillColor=none;rounded=0;whiteSpace=wrap;html=1;strokeColor=#4376BB;strokeWidth=1;dashed=0;container=1;collapsible=0;expand=0;recursiveResize=0;" parent="yRxVq_1gK0lk5HWuicpu-103" vertex="1">
          <mxGeometry x="14" y="40" width="126" height="110" as="geometry" />
        </mxCell>
        <mxCell id="fXSXnaFAM1KutNhnym3G-6" value="" style="group" parent="JeMylpXorUwbxhyJ5Kl_-1" vertex="1" connectable="0">
          <mxGeometry x="30" y="25" width="70" height="60" as="geometry" />
        </mxCell>
        <mxCell id="fXSXnaFAM1KutNhnym3G-1" value="GPU worker(s)" style="shape=image;verticalLabelPosition=bottom;verticalAlign=top;imageAspect=0;image=data:image/png,iVBORw0KGgoAAAANSUhEUgAAAMgAAACqCAYAAADoZADPAAAAAXNSR0IArs4c6QAAAERlWElmTU0AKgAAAAgAAYdpAAQAAAABAAAAGgAAAAAAA6ABAAMAAAABAAEAAKACAAQAAAABAAAAyKADAAQAAAABAAAAqgAAAAB4qRm4AAAe/klEQVR4Ae1dCXRbxbmeubLjbBBIYkIoTSRZcgLEWxaykJBQShsgKVD6aAltSvo4pQvtg9cFWtqG0kIpbWlL20NpU6AJZetjLYVAWRMSh6xeEpJYsiQnbPGSzXEcx9Kd941tBVmWrCtp7ibNnKOje+fO/PPPN/PdWe8/hEgnEZAISAQkAhIBiYBEQCIgEZAISAQkAhIBiYAlEKCW0EIqQfwlZdMocygREhkVD4dCHZ2KGm53B7fXxT+T9/oiIAmiL74npDe4plxECS3lP0aJlzDiwsPx+A0gxIlIyS8ieLQPv72MsvcVRv2M0l1EZe94Q3UbkkeTT9JFQBIkXcQ0hG9wV16qMDaLETaDElbOCOVEMNL5CGFvU6JsJIq63tNYv8XIxHMpLUkQAaXpd5YvJJRczAi5COIm42c1XNug0muUqP/xBOv/KiDLeSPCagVpG+Ab3GVLKKOfh8KcFMNsoziaFui6AV29Jz3B2t/YSG9TVJUESQN2n7Pi00xh11JGPoNow9OIatWg6AXSajBmVWmo9s9WVdJMvSRBNKDvc5ffhvfuMgSdoCG4XYN0oXF5lirs957G7evtmgnRekuCJEHUX1I+RVXJdwHQ1QgyJEmwXPXeiFbyt55Q3WO5mkGt+ZIEiUOq0T1lOmP0Nsw8XYJH+Y6Pj1D2U2+g/h9xMOXNbb5XgBMF7ZtYUUUU9lN4LMJP4nICGVwwsoMpZHlpoO7JWO98uJYVAaXsc5WtAieuwaXEY/Bav0Wh9MaSQO1bgwfLnad5XSEaXOU/BwD/i+K00zSt2bUPM1/kUazY8xdKzru8JEjvtg+FT2u6c76E9cvgEULpHd5A7V36JWG+5LwjCFqNh5DppYA+7/KuU3XbRhWy1NNYt10n+aaKzZtK4nOVLwbSK/A7zVTEczPxMFqT36A1uSXXspcXBAE5fo2Cuwk/JdcK0GL5WecN1s21mE5ZqZPzBPG5KmowT1mRFUoychoIsMNYZPyyJ1T/TBqRLBs0ZwnS4C6/kjL2AIYaJ1sW/dxVDOus9O5c6HLlJEF87rKbsAmPd6tkl8pUEtJ/eoO1V5mqQpaJ5xxBsOP2AWyPWJYlLjK6OAQ2Y1wyQ5w4YyXlFEF87oqnCWOXGwuhTE0DAjtBkrM1hLNckJwhCGaq3gC68y2HsFSoFwFK3lMIu7gkUF9vJ0hygiAYc+zAmMOWbyg7VRYBuh5SqHJRSaBmkwBZhoiwPUHQcvA30hRD0JKJiECghTjoBV5/7Q4RwvSWYetZHpCD24mS5NC7loiVX0wibK1vYvlUsWL1kWZbgmBP1VpAUqYPLFKqzgicign4f+mchhDxtiQIWo4X0TfMqS0NQkrTXkLO8DnL/VZX2XZjEL+7/HeMkf+xOrBp6ncI31i8C+siTZTSjvi4MD53KvI8HvuPx+HZ2Pjndr5HBXzFE6zjppMs6WxFEL+r7AbsYfiDJZHUptQhkGAzQH8b6zUbiVrg8+7Z9o62qP1D+Z1ll6uUTIH1xPJe643EgxCO/qFsc/c3rJNcZ0VtbUOQ3a7yeegPvgoQC60IZBKdwmgZ1oAUzxGmvlzatH1nknBCvHuM2an0UrQ0n4bAMUKEGiQEJP8WrD7+UUtyL5TM+n5EpdeHieIqIGrD4mA1t2api7MNQTDu+AAInK4LCmKF8m8jnidE/T8zrYH4SyrPY6q6BDuZv2iTDZtdClXnlgS2b05UHP92zl6oUrY8zJQZKqX9WsphauTWS5o23JkoXrZ+tiAIn7GColYflDejMFagq3BrtoUiOn6Ds+J6StnXILdStGzB8oLAzx2V+XzJnClKhN3drdBPhBktivrH/6NuRD4bXFcQ7y/i3vIE6bNquFxEZnWS0QAQ78BAc6VO8oWJ9ZdMmcNUCizpp4QJFSwI5zr8K8CGNUYovbqbOMahe6rJFRF186JgtfBNkZYmiH9ixQWwhfsKELLidHQA3ZdbvMH6f2oqQQsFanCWz0TB34mxyicsohY7RAr9raRgVCcpKFY12gvAuIUMJRECchCMRVSiKPPmN24SajbV0gTpmSenpMQihRhVox0V6xfeQN0voh52/eczYTh45/fQf4IZeThKHK3NtKirgznGoeXQ3EUaAlIMBSn4f/8KzDadH9x6rsi89JcvUnKWsrDecR/m/nm/2TqO0mfwldwV1lFIjCb4TOAuTDt/F9L6DX7FSO8vpZuR/fvI0PZ2xTG+mymabR6jheghRRFIgV3B/YXG3OH0rmvmB7Y8EuOV1aUlCbLbVXEuQOBNpe4FphG9dtjr/R6OCLhfY3jbBfM5Kxdg5m0FXsnCW2yV0HAbKXx/Pykc3UWUkVrB4UTo7UJF0LwkJ0WcvND5wS2uOL+Mby1JEIsZWqjGzMqcjBG2WUSspTyFg4GybiV5dT5ICj/YzwqGdNKC0RmOK+K6UFrBpN86P7hZ05pKKomWG/xi3HGjVayQYNvHQ/lEDl5ZSgP1n8U6zg9wyQ8KzcTtaWFD3nyHjOjeS4aO76AFY7SQoxAtxEjSTUaTLvyHsRqMdieT1HvisB9mHDUuouUIAlR+HKejGbcY/dHveAK1y8xI3Ow0uTlRRtSLocdBjbpgLxksyDC2AC+UiXNCmxfgiLdjqeLybhMnAyfFKfgN6xlfpIql6fn4Nc7p39cUMkWgzEmaQnAmjy2yEfEo7DpdicNjVmeSh1yKs9t1ToVCHC8hT3yTZLzrhsdL6I497AnVPh7/kN8/45pzDG+afgt8GY4rEolP5HcUvY8nsdC+cl5gE18eyNpZiiDYTnIcOTJzr9VRqtJFnqba17NGNocEoFyakJ2eqWCYdt+Ez5sfLg3V3Zsqiy84Z8zvooWvYTyi8LUKPgM1BP86uC2Y8Vw1P7SFT1kLdZYhCAphBXL230Jzl56wozDCvBhGmF9LL1p+hIY5pZ+oRH1iUqh+Vzo5Xu2evWQYO/4gKprmKV2N8n1o6f82L7TllxrDZxTMSgTpQg5Eg6gVFEkOrUhlEO5N97RbUJlFLKweQRfqaZFdqFTZsQRB/O6yP2Od4fpUyur0PIIuw6XeUC3va0unEwJrXNNfROVemIF4PtZ5BttKVs0LbjX8M11LEATdKwyuTDrlidHlIMftGRScjJImAmtc0/Yjyqkao60DKVaCFH/RGF6XYJr3v+iSOoQ2uCowrcvMOQINU5M4SkySQ6/CjZfLyA8xjX9fvHfMfTOl5FGYjl01r3Hrlhh/0y5Nb0HQeuxB7j9uAgI1mLOvMiHdvE7yTde0alS6WTEgtOMz6kcdIMXcwJa3YvwtcWlqC4IjCq7GWpEZ5OiU5DCn/ikKuwHfpKwbQSKbOonyh7nBrU+Yo4m2VE0liMLI1zVvQdOWH02h8Aa7Q1NAGUgoAs0TPVWK2rEUZY6xCJuLrtRdQhPQQZipBAFQ83TIUyqR6/D1nyRIKpQEPm91TroZH74tRW/hbH6G9AnHlO/h+t8n7i14YRpBGlxlPzIBj26VRL5pQrp5l2Srs/RyFaffYv3jEpCiKJYXH4HB5rdM9EwtbvJv/cjPWlemEUQh9Isx7xKjULl3UnBHrVGJ5Vs6LS7PYtjp+hLKdRF+w0COlI4pCjcC+OWUAU0KYMoslr+kbBoGagnNu+iIwyEMzE/RUX5eiu4ZVyiOaxllV6KV+FgGIHQWBxuGZxDPkCiKIanEJcIi5HNxXvrfUiZ8I5v+Sls3BT6uaHGX7qCKshVdqG9nSA6ewWHNzkmWNSVrSguCj6K2Y8HoHAOL/0O0HuMNTC8nk4odVyCD/baxZ5nhGrQillyTMmcMQomhp0GhK3xPlgWYt9EzGVdkAFblh+7JZacHdtVnEFfXKIYTBCvnfEu7kS3X0dJg3a90RTEHhbc4S5ejlL6IrHk0jLWzRqCAsc9DiOUIYsIYhH46azTTEcBowq/d0hGRb2ExJlgIctyGfHuMyjvGMVcblVY66ZhAELYgHQWzDUsdEf4hlnRpIHBaaPdqEOT1NKKICOre5yqtECFIpAwTCEKKRWYghax6T+N2bl9LujQRUKli+EIutrcvSlNN3YMbShC/s4L3Mw1zaLYtvRHOMCAySGhc4671WOgz9OUCSyiZfFCVQe60RzGUIFhMEm59e7CswqzMc4M9l88GRwD7p/40eAjhT2O3wQsXnolAQwkCBY0kSNAd3F6XCSgyTi8CxQHfIxiLvGcgHgXN7tJLDEwvZVJGE6Q8pUbCAtB/CxOVx4KYSlYamn3VWgclGU0Qw/ZCUZVI8z0CanaBw/GIADGaReCTWzM+gUiqn2EE4WfmJdVChwcw/va0DmLzTuToxp3bkWkju6rTrASyYQRRIxGvgRl/38C0cj4pzAb+08BMDttfctYUA9MbNCnDCAJj0IatyiLHlrCIMSjyNnoIowqG2qMKR8LTrQKPYQRRKM3kW4GMcMKCU42WiC9OmDZXS7h8DzMu2MA/Mms1CgccO5GHLQhTi40CGG+8pmRp8aOFX3DOfuFZ95xjRx1D177snD0/WVjp3w+BV/vd6XszWV/x2qUb1oKg0o7VrlZ2IXG2xZ54CaudM3/7nGv2vuMqre+kysXRc7ePO2hbfFh5PxABbL9eO9BXLx9Wmq7kDZ7pl6UbR0t447a7MzIWi06GOJwH3EOQ1RNnXYdD6L/dzeg5HRS22xO4RY3r+SyNdCkQiCjKNgUnLRvjqEtLOhvPrJrfXUh+2kXo7MMRNmSDp+qcWf5t72iJqzWMcQShZIxWpbIJd5Q52t6lQ5942nXeOR3RQ0ANImY2els9Lt+b1eIq5QxJ+KIRrP+g9XK9s/KpbqpceIjQk2O/VXGE2WnQw6YE0dE4NVoIHC1c1Hu0MFE4EQ0ho+BKYQNxrBHfuhkyXd820TN7TJO/OgpKtbPynjB1LDlG2LgjSboiESq+Gz8oU6PKCfoXmhbeHJ2tbEjTAVow/hhVRqPgRie2vTRQe96g8NOO+BHD0qWBAKM+1E1DCBJ20DM2uiu/0cWUG3BwzOR2rBP0apq8O+DgdUCwE1ppU+jmSPFcy2N2gBT6W0nhqGPEUYxD4zXPdkRJoeMxYFr0t3cYSt7VOwNhprQ1k8KDOEJ6FcYWaVn9Dys4C1SwM5IgGavewZR9+2iR2kkKTsM7P603GD8Tj5OC/xK9e950VZ0/P7htTcbK5VFErKjvwTcbwnMcJvTIPjak+RApOP04Vcagd5BRFxmVOXZIIkRPyxIkTJTOZlZ44KBSUIzrcenk1gFSDO35RTCiTIUZPT0d2XkdlmHruyB+oFTU/bTwvTY2ZNRRPtimdGS22LIIQ29MrDOSILzDn6qbheO26DNBUuRqJ4XTURjDUtbvPjyiXSg+rigAOTSXI6PSXpbGOsUU0q7FnOhg4tpJQaCZFA3vIHRchNGPDxY23Wdo3WxNkCPI8Kgkme45bssTrO85but516zXk4Tr581JMKSn+8S7UXwGMlVr0S96zw1WRzSPYwbGzi8fVMDOTHJ8jCgfYJbxeDt1nIEZR3cmMrTEwSm8x7SESyeMcS0IJUdQf2MJEsRrfqWqssfijxbGW4o/W5AsI4UgAycEby2w7ypZMG3+jJ2lLaAMRVUFvSHNi4WHgdhjfjrignam9I4bsyyqlCVACT/rUqgzjCCo9EeAT99xW2RVSaD2rWQ5oZQNWOxxgAicEHywza/FObHNvDi9rCeJKWo4RReL923fxGB+1WkB34M8B6+7pgp/q8cjw/vtI1EvCgoU4bsiDCMIUdlN3qb6F+Mzl+g+rLKtfL2Wd6E4KaLjikRhM/Q7jnjPovUx5WjhDHU2PZqDsWFJRnfroNxK2NcdcCItwg/RQ3FOihHoRYzs6U30vjC9vpqdotMyjCAejeTgGfxM08bXXnaeGymiEYfmwXZqZDiK60EK048WTq2qNUNgjxvWJU603gG8wVbRCHt8bJMvacXEzIywIux9YbKe1mIE9IgTjJ1F4p1hBElX9aE08h7iTEg3XoLw7wPIR9Hsrzw/uNXIT0cTqJIDXpQ8BpI8DIsnKY1ibHBWLOMDkWwdn7I/CYQYjn90LJI5XXZlW5YgKAR89EQzJUgr3nOP4ETVlVY5bztZqdrJvzi4+znoy3+aXERxnP9Rg6MpyolAhYjIScG7UbBvdsJ/kAv+QhXuLEsQHOW1EW/9z6SRYzmuSAMsg4JOTycd3mXqHVfwCZkko53kAn3JH2X+xLIEQd914yDNaTTHclwRRcKC/90qLYkfKMSryUnBu058sM1XhePGFfHBk94jpj/pwyweWJYgC4Kb/7PGNY1PuifiiR/TjSvmhbb8Mou8y6g6I3Cc74RI4ob2dZ94i5Fqe0USEf29KcsvgvTlnjebk/qu5biif5Ww9N0GZ+UP4gfovesVva3FEG3jCs15ZIw2ag6cRkDLtiA9eWBs/Sga/lBl5MGqUN3f08iXDGoyAmFFWcI5wJt/3n2KXa/QQbXwpGDtRh3kYoLAgg4GjOeiC/UlQo7wD/FHo2P6sAXVlCoNgoBDZe5ibEvhXahMxxWDiI97RHfEeQi7tRRBcKzwbXjrXIVfv/1RlLHZyPEKYbmWgnRFoMFZPpPSyHBdE+knnOnSevAkTCdIs2vS5/CGWYp1j4UgRmG/fPfd4FsBThDpbIIAVegVhGlauxCSI+yO2CxEUAIhphBkX8mk8xTehWLsKhDj1AR6xXvJLenxiFj5nrFrjVRPZQ7dWhD9u4d9SDU7vZUKVZbhlKkr0VKkbYYU5ii/MTaw+z4jgZdppY+Az112DWHUyDFjszdYNy59TbXF0L0FaXVOuhlHeS0FKc7GyjgaDG2KxYdC3MXwkwSJB8Zi95TR6zMs4gxzQv+TYURN0XQhSIvbuwhALQVQi1Gx+ZpQ9o6RBdkLkRL0RMA3oQovwchcPdOIl82Y+kq8n8h7YV2sVnfpJzEuw2Cb8P1TsV8OitOXsa8Vh3z3ixMoJYlEoMFd9hRejFeIlJlCFkP3KtFOixTRtD/OugWJdqFAjrO1J5thSEqXIaYkSIbw6RnNN7F8KnoKl+uZxkDZtG6gn1ifrNmHQfddAEZ/cvTme+aH7sllYiGQ0kQgAIsnd0OOsB6JJp2Y+qimcFkEypogGHXrss04WZ4Upn4n2TPpbw4Cje7yC8GMCw1OXfWG6nXfrJo1QbDN+GUjgUFBLDEyPZlWagSw5Zq3HsY6RjcYkWDWBIGtJEMJAlAKW1yTfmUEODKN1Aj4XWW3o4s9NXVIwSEUZshai5A+I86N4DubTxIMwWDijsCChpHpDaZL3j7b7TqnQiE9q9i6WC4ZBNguzF4NHeS5sEdZtyB9mjwrTCNtgkY2u0of0hZUhtILAZCDD5KNJgeGvewfeuUpXq4QgmBX81PxgvW+R9P3Jb59Re90pPzECPhd5Xzc0W/XdeKQ4n1Vqhg21S+EIGObGp7GYnmbeCgGlYiTpem9g4aQD3VBAOOOr6K8v6eL8FRCGV2v18dRiZIWQhAuGB84rUyUgM5+8/ANyU06pyHFxyDgc1YuwMzlH2O8DL2E+dM/GZmgMII4HI4HjFT8RFqM/vzEtbzQHQF8CPUIEkn43Y7uiROytzRQz9M3zAkjyOjGndxw8NuGaX4iITa8xeV9/cStvNANAZ+rvA6tx3jdEkglmJJfpAoi+rkwgnDFsB/rt6IV1CaPLmhxlt6jLWziUNXuaffh0MhrEj+Vvg2u8lqgYOY2n73eQJ3hnzsIWQeJrT5YE9mL+zNj/Yy6RmaWjg02rNKa3npX1e3dRFkGk4xn8h35eFuwkSxy06xQze+1ysiHcD5XBczAsgpT80rJN3KCIM0u761YXTdrXHA4QpW5pwd21ScrzI0Tpi4+rrAfdhFlRoQOtFnGSTJKidw8o7FGrtYDREuQg5BdWBg0ZUpZeAvCKyZakWb8FfNrE9wHWGU/IzbdDSVTp3Wr5OfdhC4I8yNHNLgRjD10XmjrMg1BczJIo3vKdJUpTyNzpvQGYkGF0Y7FpYHa52P9jLoWOgaJKo2vCM1cnxgPgvacUFXtrLznTde0Dw+rdHMnoQu1koPno4PSa6tdVdXRPOXTPz58WgJyrEGeTScH3uCvmEUOXua6tCBcMCrpAfydwq+NcnwccZAWvNuiFg07SinO284+ezhn/WCh4ph3XuNmPkuX846vkJu2CDgQ3S6mqlWlTdt3DnxkjI8uLUif6oaNQ45R+m4TGRbYTkaGQ2zYmR09h9FnTw6ej+NEOeVYhNW87aq81ZgiMSeVBmdlJR9vWIgc/PV9l5nk4CUhphYlKVO0IiE8mpjkcVbeOGO7bR8tajtICiZ0EappXJFVgog8nLA9c4NbdclPtrplE7/BVXE/jK9dBxl6vjDTVbEGA/OqdCOJDl8gWmCsPHRxfgbgV8T6ZXOND3PCbaxobystGN3V00qQMdnI0xqXLxufBBuzsDM7AYtlfM/ZzSg8YfnSqofocGgxPoXx4q9QRuWiZWcpD5OR6jezlCEkuq4tCNcQrchb+DsvC23ZQVLobyWFozqIUgxTyLrrzHV14Nd72hE/kx0dj4GuCRXrTk+w/i8DH1nbx+csmw8Y+eeqMy2pKaPLvaHa262gm+6VbX/JWVMiamQrMpvu/p0GmJB5IKAMPfcgK/isEWBxMLgRL26qPw2r5JuxUfPHnlDdaiN0zCYN38SKKqKot6Bn/V+Qo3vZZ6IrWrRNpcH6czOJq0ccQ0BqdZXei3fwtzRk4DBI8SS6ZiuLQ7veiIZf6676sJMp46L3ov81nqKaKtkGbGn+szdQb9J2m+Tq+Z3lX2CU3IAQ2bTkyRMQ9oQd9gbrRwkTJ0CQIQTheqKrtRt/pQN1pkexeP0kOk4rxwYaXhn4vNfnNffU7jCjwsZMGZyimky1eP9OfKfyuMrUB/Em5GsJprhGd+UMVVWvoJRdixeOeRsMteeeUZVe6Wmq5YuTlnGGEaRtome2qihrkXPeveed+leR+CrsnVqpBY1N7oqvoKv1t4SjAS0CEIZP0Rhw2lGsNgfw5n4JreIL3mCt5j1isQLSuW50l10SYcplClFh8tUWpPgoexgTeQO16P5ZyxlGEJ5t7Lhdjgpe5FDVh8fs8fesdqcDR7Wz6tF2qnwhnTg8g73jigjGFag26UQWGxYnyRG+2LgNamxDd2xbNi0MH09gpmcGdlDPxICb99n5XiX+8rGjewmzggutqLiJ9SUzON5yTa0+SuisVLE5KfhAm/8sXGt4g9gKsrTgyIBWXLeAwgM+XVYoGQIifAwNL9/6MQG/EfjlhAMAdaXBugqrZsZ2BOFArnVO9aOjXxIP6kfjioj5R2fFKyfvEyHQhJbDmeiBVfx4t9x2bl5oqwdrEwe54jwDJ6OVOIOEsbMuDLPykhw2KdADKolcZnVdbdmCREHd4qraeRKJTLZ1JqKZya9/To4LJgV38K8ULe1sX7ew9WMbEJb2sSxdzfop14np3Esxnft6P1+L3tiyixWLZd+GNt1OOY1NS15njUAbtgotsAs5eG5t34JEi6zBVbYRn/rOiN7Lf8sh0IZDXC8uCdRsspxmgyhk+xYkmre+/Turo/fy31II7CUOOt9u5OAI5kwLEq0Ofnf5fVgz+Fr0Xv6bjsA6dIPnmq5FhgrkTAsSzb8nUPd1LD7dgXu+CCedmQhQ8qKdycGhyzmC8ExhZfZHVGWX4vIAv5fOcAQisCJ4C+xYXWJ4yoITzLkuVjw+3Fwm/My0CBivUq7f78M07tV2mqkarEByniA88/i09An0uPhHQtLpi0A1ulRz9E3CWOk52cWKhxBbza9SKLsUn8h+EP9M3gtBoAsTIzfmGjk4MnnRgsRWAXS5XsS9JbdWx+ppm2tGdqiUfsXIQ22MxCbvCMLB9eHjKwwiudGCsUaCnWNpdWGL/p1WMa6gF7Z5SZAomH1rJl/FfV50NaP5zv6fvcxUdqPZRt2yz0dqCXlNEA5Pn5HmP+HSMpY0UhebSSHQnUKF+a4dLLiIQijvCRIF0u8suxxWxH+Ce9Ot+UV1stB/kFH2Mxx/9qCFdDJEFUmQOJhhVO0yfOO9HN6SKIRw43h3wDjeX+NgyptbSZAkRc0thDBGb8J+lU8mCZLL3tvQYvza6AMzrQioJEiKUgm4ppRHmONGGFb4PIIOTxHczo9xEh19FutF95cE6l61c0ZE6i4JkgaaDc6ya6lCl2Ib5HxEy4mZL7SQdTB093fYpMrqENQ0YLRVUEmQDIurwVn+bZjj+RwqGDfnaSuyoNB3owv1OAkXPO7dsy1t+2QZQmbLaJIgAooNq/PXYa/XReiifALirLj42IHB9hvQbTUG3H8UkOW8ESEJIrio/SVl09QInYsmZSbMjvLjBdyCk0glTkWh+riVdMzGVZMIrfY21XLDFtJlgIAkSAagpRvF56xcgAo7GQPgs9Al4wa8uYVEWEokp6YrKyb8IVzvxS8I2SHY/w2gp1fjDdW8ERNGXmaJgCRIlgCKiM5nylSl4CQWYSMJVU+Ol4mxTkeEH5eo0vbSUN3b8c/lvURAIiARkAhIBCQCEgGJgERAIiARkAhIBCQCEgGJgERAIiARkAhIBCQCEgGJgERAIiARkAhIBCQCEgFjEPh/2sq4NXcARGIAAAAASUVORK5CYII=;fontColor=#4277bb;" parent="fXSXnaFAM1KutNhnym3G-6" vertex="1">
          <mxGeometry width="62.541583499667325" height="60" as="geometry" />
        </mxCell>
        <mxCell id="fXSXnaFAM1KutNhnym3G-3" value="" style="shape=image;verticalLabelPosition=bottom;verticalAlign=top;imageAspect=0;aspect=fixed;image=data:image/png,iVBORw0KGgoAAAANSUhEUgAAAPMAAADPCAMAAAAXkBfbAAAAflBMVEX///8AAADX19ezs7PCwsK/v7/z8/PHx8dnZ2djY2Pi4uLq6uo5OTnf398pKSnOzs6AgIAfHx9LS0t6enr39/eMjIxdXV1YWFjR0dHZ2dm5ubkZGRksLCxJSUkiIiLo6OikpKRxcXGXl5c8PDyIiIisrKybm5sODg6ioqI6OjpX9zhIAAAIHUlEQVR4nO2da2OCOgyGmW6o4HXivEwn6tSd//8Hz1Gcbdqk4CiUevJ+2hbK8ghCm6ZpEJTWoP8CtG4B83IDzf0lMLfWxtaquT8o77AFvWhKzOYHWic5rR1poLs1kswL3dwym+XWI93chAvd0t3qSGbEaxmqY26NmOG970blmBEzMzMzMzsTMzNzwMzMTJmZmZmZ2ZmYmZkDZmZmyvz0zH7GSSLdrYVkXurmpdkst0Y+0KgmLqM+NbeAWbOegXmomr+A+Us1TyrnKaJw3AeaxsAcd6G5C83h1NhaNY/DynlYLBaLxWKxWKyGKNyO3hxosdw6wR0cp311zFOnzuNVku+lRW33E5e8v5rWl1sS7VzD3jVf5LtrQ9+uQYF2NdzhSLTGsTr5TpdT6poQ0b5a5JlrPlS7KpGnrukIdatD3rtmIzV+kCQaIMIOXLkmM6iNOYyBXXpwCdGb0qcL4nopHpQe6keSby/a0E+loXaO98r8taGD5i/VNT7RJOq7Hrmzd2n71YXaaVd3Rr27QwqsSzOrEwaqfVNTt49QR7uMygEkc68wc1sxH2ujo3Qye2SBWflY4aIKN1ImauHkngVm5SHoZsyuSpnIha+a8szw8V55t76g4HMVdkzKMx9k07ROLqN6sltrYCrNHNImp9oCv8DUdWlm8LiodBjzoD5kx15lS2nmo2x5qxfLKPAKTWVLaeaxbGnGQzsTGASA50xp5p1sqZcqR7Jj4EtXmhn0b+uFypHsGAgdMDM4igr3fIIze8iM5K1lmgXxGbeMQHsfmZG8yevFvNzAI2SE2lG6HT4yB2EHISs+AvaSuaSYuUliZpti5iaJmW2KmZskZrapZ2MeLBEpx/jJjIFdZpmpcRUMkPvIjKxmu2gSwkiXpD5o7yMzlbY3KzgX6yFz6bnYZ2L+P8bDKmAetE+z8Xh2+jm+DWC0JdYSWiJlmWG0zQT+vr3/FZszcs/8qiQ9fPZ+xAsADTeuv7EDPlAqbJ7fNfNCW+R6VXozU6+ITawdIHsvlsY2kPmHONPvvDDFfM9awJnFB9k85iN1pnzm2yyqd8zIevfizO9+MtMpcwWYs2wN35iRQp2PMPd8ZO5R5ynG/OIjM2j7dZhftVlfOvq/U+FG5oV/zG+S/VvOhE7i5e8UkUCaJ/FFC6kA8bE25i754cOaGLnMUv7YCrND5t9ulpTUNrbNbJiLDbUKIJng/F0us7hd5hQywiyNcXfWmYmn6voySI4wKZnMuczCeTRjnmIW5+1ZZw4SlIx0T1Ues1Qnm57gRZjF+rS5feaSymOW8vHoJMEnY27p1iQUyr4pCLMYPdr/PpdVHrPI3chyb6b/gKdm9oZGmEXqrP3ndlnlMYuk4iy5VnnrZz0xhFkcMgt8YxZpl9n6lxzm3q2ZFDlpB74xi7Hz5vp7DvNk/n6RPJ0Qecxc6Dojggf4wCzu7f7fmLv+MYtn2PBvzPZjBpUzdxSrst9LLvNBOaBi5qSDCQbbc5mlpUjX/sdxv9+fdsWZt1UwxxjYKKFXuz42rpL6nmLwLC5+HvNt7ZJdZiLH9YWei4ULdx4YY4hx1WtB5vteRVJQwQIzPX62NBcr/oFwl2aez+biZ7GkRfpQUCpsmEoyVx8bkg6452XQ9/bl96izWr0twIJ6Kdgyw/6ILd9zyCwvUm1fmibxQHirMhML8eSlgLtscA9q3mDjfYfMMBAzHMIvU0FmOBUyPMw3MHCFtXHIjOw39jhzQOTz3J1tGLOxWktRZnPJF3T9nktmokrEY8zG0hh4RWaXzHC15h+ZjVVf8GLjTplN16gwc7Ajz0EUUHDKjPT17jUQijOTX2lqMa5bZrW0WDe+/9sHmLU9OLMTkBFkx8zyRTrsL+1/w9cZIwzs0opmcPPQj6OhFpxz5v+udXo6pavWrXFyywPLRqYiPyw2nCFrGI1W6ennuOqgSWHNYq5djzPTc7GwwomHzPqWCzfNyFpaMGvdR2aiWuPh8nCIMSln9pG5GBktP5nLiZmbJGa2KWZukpjZppi5SWJmm3oy5vAV245BqRHmJXOEgb0makU9ITg35CPz2wuumKwr9dhcrDvRzNRc7LeaBSH0tOti/4+xIWZmZvkEOy+Y7dZ9BNHRRuxSexN41YIixXbruLovNy5EO2a3Xu97vVhGgRlg0I+yXJe5vm2j8rQt6vIfmGH9bXoJVd0CqzThdhG266zTa6jqFdzYYAZs1uvpN2ELAa26DvzK2d83AZZ5dSMlsUHZCcUCs7oNSsUbZRWQmm+jZF8Y5mKp3eXW6r9Q89XO7Xr3OoQKtYoRn+oha/WI+9VKDqjhrL2PkCH4PD22XeiYInenlgA7wLMKr72LEBPy0c7RUzRFH4jHRcloNXv/qor2r6CS/Zugyt4jVHEd90qrQs5ZCedQ39UhN3V/yVm+42XUxNu78vF84/aLPdfR92/Wl7rSr7LQANn1z5F29cXmmrHP92RfPMHNigZpz7xKpmL1UjcRqiRatlxoqZbJYbFYLBaLxWKxnlZx72so6WsOx3fhdAjM7zCtcrsBrYcbaI42sHWv5qEUIT3fDpi12utnYNZHTGYzvtq9ZiF1t+W6Pciaf3kQiISa5NZIXdImZPAgXstTR8gOLHL8HZkn6JjN+BL/elWOGTEzMzMzszMxMzMHzMzMlJmZmZmZnYmZmTlgZmamzE/P7GecBAl4yVBIRKtlNufcBo1Y9KO7lRQ3Jw+b64HK0bY7kfXZg5HJgZJfvoY3Z9T9BK27sHXUA+ZJ10J8+1/jlLR6eOlQ8wAAAABJRU5ErkJggg==" parent="fXSXnaFAM1KutNhnym3G-6" vertex="1">
          <mxGeometry x="46.57351962741184" y="37.5" width="23.426480372588156" height="19.96007984031936" as="geometry" />
        </mxCell>
        <mxCell id="JeMylpXorUwbxhyJ5Kl_-8" value="Default Worker Pool" style="fontStyle=0;verticalAlign=top;align=center;spacingTop=-2;fillColor=none;rounded=0;whiteSpace=wrap;html=1;strokeColor=#4376BB;strokeWidth=1;dashed=0;container=1;collapsible=0;expand=0;recursiveResize=0;" parent="yRxVq_1gK0lk5HWuicpu-103" vertex="1">
          <mxGeometry x="180" y="40" width="200" height="110" as="geometry" />
        </mxCell>
        <mxCell id="JeMylpXorUwbxhyJ5Kl_-3" value="bx2.8x32" style="shape=image;verticalLabelPosition=bottom;verticalAlign=top;imageAspect=0;image=data:image/png,iVBORw0KGgoAAAANSUhEUgAAAMgAAACqCAYAAADoZADPAAAAAXNSR0IArs4c6QAAAERlWElmTU0AKgAAAAgAAYdpAAQAAAABAAAAGgAAAAAAA6ABAAMAAAABAAEAAKACAAQAAAABAAAAyKADAAQAAAABAAAAqgAAAAB4qRm4AAAe/klEQVR4Ae1dCXRbxbmeubLjbBBIYkIoTSRZcgLEWxaykJBQShsgKVD6aAltSvo4pQvtg9cFWtqG0kIpbWlL20NpU6AJZetjLYVAWRMSh6xeEpJYsiQnbPGSzXEcx9Kd941tBVmWrCtp7ibNnKOje+fO/PPPN/PdWe8/hEgnEZAISAQkAhIBiYBEQCIgEZAISAQkAhIBiYAlEKCW0EIqQfwlZdMocygREhkVD4dCHZ2KGm53B7fXxT+T9/oiIAmiL74npDe4plxECS3lP0aJlzDiwsPx+A0gxIlIyS8ieLQPv72MsvcVRv2M0l1EZe94Q3UbkkeTT9JFQBIkXcQ0hG9wV16qMDaLETaDElbOCOVEMNL5CGFvU6JsJIq63tNYv8XIxHMpLUkQAaXpd5YvJJRczAi5COIm42c1XNug0muUqP/xBOv/KiDLeSPCagVpG+Ab3GVLKKOfh8KcFMNsoziaFui6AV29Jz3B2t/YSG9TVJUESQN2n7Pi00xh11JGPoNow9OIatWg6AXSajBmVWmo9s9WVdJMvSRBNKDvc5ffhvfuMgSdoCG4XYN0oXF5lirs957G7evtmgnRekuCJEHUX1I+RVXJdwHQ1QgyJEmwXPXeiFbyt55Q3WO5mkGt+ZIEiUOq0T1lOmP0Nsw8XYJH+Y6Pj1D2U2+g/h9xMOXNbb5XgBMF7ZtYUUUU9lN4LMJP4nICGVwwsoMpZHlpoO7JWO98uJYVAaXsc5WtAieuwaXEY/Bav0Wh9MaSQO1bgwfLnad5XSEaXOU/BwD/i+K00zSt2bUPM1/kUazY8xdKzru8JEjvtg+FT2u6c76E9cvgEULpHd5A7V36JWG+5LwjCFqNh5DppYA+7/KuU3XbRhWy1NNYt10n+aaKzZtK4nOVLwbSK/A7zVTEczPxMFqT36A1uSXXspcXBAE5fo2Cuwk/JdcK0GL5WecN1s21mE5ZqZPzBPG5KmowT1mRFUoychoIsMNYZPyyJ1T/TBqRLBs0ZwnS4C6/kjL2AIYaJ1sW/dxVDOus9O5c6HLlJEF87rKbsAmPd6tkl8pUEtJ/eoO1V5mqQpaJ5xxBsOP2AWyPWJYlLjK6OAQ2Y1wyQ5w4YyXlFEF87oqnCWOXGwuhTE0DAjtBkrM1hLNckJwhCGaq3gC68y2HsFSoFwFK3lMIu7gkUF9vJ0hygiAYc+zAmMOWbyg7VRYBuh5SqHJRSaBmkwBZhoiwPUHQcvA30hRD0JKJiECghTjoBV5/7Q4RwvSWYetZHpCD24mS5NC7loiVX0wibK1vYvlUsWL1kWZbgmBP1VpAUqYPLFKqzgicign4f+mchhDxtiQIWo4X0TfMqS0NQkrTXkLO8DnL/VZX2XZjEL+7/HeMkf+xOrBp6ncI31i8C+siTZTSjvi4MD53KvI8HvuPx+HZ2Pjndr5HBXzFE6zjppMs6WxFEL+r7AbsYfiDJZHUptQhkGAzQH8b6zUbiVrg8+7Z9o62qP1D+Z1ll6uUTIH1xPJe643EgxCO/qFsc/c3rJNcZ0VtbUOQ3a7yeegPvgoQC60IZBKdwmgZ1oAUzxGmvlzatH1nknBCvHuM2an0UrQ0n4bAMUKEGiQEJP8WrD7+UUtyL5TM+n5EpdeHieIqIGrD4mA1t2api7MNQTDu+AAInK4LCmKF8m8jnidE/T8zrYH4SyrPY6q6BDuZv2iTDZtdClXnlgS2b05UHP92zl6oUrY8zJQZKqX9WsphauTWS5o23JkoXrZ+tiAIn7GColYflDejMFagq3BrtoUiOn6Ds+J6StnXILdStGzB8oLAzx2V+XzJnClKhN3drdBPhBktivrH/6NuRD4bXFcQ7y/i3vIE6bNquFxEZnWS0QAQ78BAc6VO8oWJ9ZdMmcNUCizpp4QJFSwI5zr8K8CGNUYovbqbOMahe6rJFRF186JgtfBNkZYmiH9ixQWwhfsKELLidHQA3ZdbvMH6f2oqQQsFanCWz0TB34mxyicsohY7RAr9raRgVCcpKFY12gvAuIUMJRECchCMRVSiKPPmN24SajbV0gTpmSenpMQihRhVox0V6xfeQN0voh52/eczYTh45/fQf4IZeThKHK3NtKirgznGoeXQ3EUaAlIMBSn4f/8KzDadH9x6rsi89JcvUnKWsrDecR/m/nm/2TqO0mfwldwV1lFIjCb4TOAuTDt/F9L6DX7FSO8vpZuR/fvI0PZ2xTG+mymabR6jheghRRFIgV3B/YXG3OH0rmvmB7Y8EuOV1aUlCbLbVXEuQOBNpe4FphG9dtjr/R6OCLhfY3jbBfM5Kxdg5m0FXsnCW2yV0HAbKXx/Pykc3UWUkVrB4UTo7UJF0LwkJ0WcvND5wS2uOL+Mby1JEIsZWqjGzMqcjBG2WUSspTyFg4GybiV5dT5ICj/YzwqGdNKC0RmOK+K6UFrBpN86P7hZ05pKKomWG/xi3HGjVayQYNvHQ/lEDl5ZSgP1n8U6zg9wyQ8KzcTtaWFD3nyHjOjeS4aO76AFY7SQoxAtxEjSTUaTLvyHsRqMdieT1HvisB9mHDUuouUIAlR+HKejGbcY/dHveAK1y8xI3Ow0uTlRRtSLocdBjbpgLxksyDC2AC+UiXNCmxfgiLdjqeLybhMnAyfFKfgN6xlfpIql6fn4Nc7p39cUMkWgzEmaQnAmjy2yEfEo7DpdicNjVmeSh1yKs9t1ToVCHC8hT3yTZLzrhsdL6I497AnVPh7/kN8/45pzDG+afgt8GY4rEolP5HcUvY8nsdC+cl5gE18eyNpZiiDYTnIcOTJzr9VRqtJFnqba17NGNocEoFyakJ2eqWCYdt+Ez5sfLg3V3Zsqiy84Z8zvooWvYTyi8LUKPgM1BP86uC2Y8Vw1P7SFT1kLdZYhCAphBXL230Jzl56wozDCvBhGmF9LL1p+hIY5pZ+oRH1iUqh+Vzo5Xu2evWQYO/4gKprmKV2N8n1o6f82L7TllxrDZxTMSgTpQg5Eg6gVFEkOrUhlEO5N97RbUJlFLKweQRfqaZFdqFTZsQRB/O6yP2Od4fpUyur0PIIuw6XeUC3va0unEwJrXNNfROVemIF4PtZ5BttKVs0LbjX8M11LEATdKwyuTDrlidHlIMftGRScjJImAmtc0/Yjyqkao60DKVaCFH/RGF6XYJr3v+iSOoQ2uCowrcvMOQINU5M4SkySQ6/CjZfLyA8xjX9fvHfMfTOl5FGYjl01r3Hrlhh/0y5Nb0HQeuxB7j9uAgI1mLOvMiHdvE7yTde0alS6WTEgtOMz6kcdIMXcwJa3YvwtcWlqC4IjCq7GWpEZ5OiU5DCn/ikKuwHfpKwbQSKbOonyh7nBrU+Yo4m2VE0liMLI1zVvQdOWH02h8Aa7Q1NAGUgoAs0TPVWK2rEUZY6xCJuLrtRdQhPQQZipBAFQ83TIUyqR6/D1nyRIKpQEPm91TroZH74tRW/hbH6G9AnHlO/h+t8n7i14YRpBGlxlPzIBj26VRL5pQrp5l2Srs/RyFaffYv3jEpCiKJYXH4HB5rdM9EwtbvJv/cjPWlemEUQh9Isx7xKjULl3UnBHrVGJ5Vs6LS7PYtjp+hLKdRF+w0COlI4pCjcC+OWUAU0KYMoslr+kbBoGagnNu+iIwyEMzE/RUX5eiu4ZVyiOaxllV6KV+FgGIHQWBxuGZxDPkCiKIanEJcIi5HNxXvrfUiZ8I5v+Sls3BT6uaHGX7qCKshVdqG9nSA6ewWHNzkmWNSVrSguCj6K2Y8HoHAOL/0O0HuMNTC8nk4odVyCD/baxZ5nhGrQillyTMmcMQomhp0GhK3xPlgWYt9EzGVdkAFblh+7JZacHdtVnEFfXKIYTBCvnfEu7kS3X0dJg3a90RTEHhbc4S5ejlL6IrHk0jLWzRqCAsc9DiOUIYsIYhH46azTTEcBowq/d0hGRb2ExJlgIctyGfHuMyjvGMVcblVY66ZhAELYgHQWzDUsdEf4hlnRpIHBaaPdqEOT1NKKICOre5yqtECFIpAwTCEKKRWYghax6T+N2bl9LujQRUKli+EIutrcvSlNN3YMbShC/s4L3Mw1zaLYtvRHOMCAySGhc4671WOgz9OUCSyiZfFCVQe60RzGUIFhMEm59e7CswqzMc4M9l88GRwD7p/40eAjhT2O3wQsXnolAQwkCBY0kSNAd3F6XCSgyTi8CxQHfIxiLvGcgHgXN7tJLDEwvZVJGE6Q8pUbCAtB/CxOVx4KYSlYamn3VWgclGU0Qw/ZCUZVI8z0CanaBw/GIADGaReCTWzM+gUiqn2EE4WfmJdVChwcw/va0DmLzTuToxp3bkWkju6rTrASyYQRRIxGvgRl/38C0cj4pzAb+08BMDttfctYUA9MbNCnDCAJj0IatyiLHlrCIMSjyNnoIowqG2qMKR8LTrQKPYQRRKM3kW4GMcMKCU42WiC9OmDZXS7h8DzMu2MA/Mms1CgccO5GHLQhTi40CGG+8pmRp8aOFX3DOfuFZ95xjRx1D177snD0/WVjp3w+BV/vd6XszWV/x2qUb1oKg0o7VrlZ2IXG2xZ54CaudM3/7nGv2vuMqre+kysXRc7ePO2hbfFh5PxABbL9eO9BXLx9Wmq7kDZ7pl6UbR0t447a7MzIWi06GOJwH3EOQ1RNnXYdD6L/dzeg5HRS22xO4RY3r+SyNdCkQiCjKNgUnLRvjqEtLOhvPrJrfXUh+2kXo7MMRNmSDp+qcWf5t72iJqzWMcQShZIxWpbIJd5Q52t6lQ5942nXeOR3RQ0ANImY2els9Lt+b1eIq5QxJ+KIRrP+g9XK9s/KpbqpceIjQk2O/VXGE2WnQw6YE0dE4NVoIHC1c1Hu0MFE4EQ0ho+BKYQNxrBHfuhkyXd820TN7TJO/OgpKtbPynjB1LDlG2LgjSboiESq+Gz8oU6PKCfoXmhbeHJ2tbEjTAVow/hhVRqPgRie2vTRQe96g8NOO+BHD0qWBAKM+1E1DCBJ20DM2uiu/0cWUG3BwzOR2rBP0apq8O+DgdUCwE1ppU+jmSPFcy2N2gBT6W0nhqGPEUYxD4zXPdkRJoeMxYFr0t3cYSt7VOwNhprQ1k8KDOEJ6FcYWaVn9Dys4C1SwM5IgGavewZR9+2iR2kkKTsM7P603GD8Tj5OC/xK9e950VZ0/P7htTcbK5VFErKjvwTcbwnMcJvTIPjak+RApOP04Vcagd5BRFxmVOXZIIkRPyxIkTJTOZlZ44KBSUIzrcenk1gFSDO35RTCiTIUZPT0d2XkdlmHruyB+oFTU/bTwvTY2ZNRRPtimdGS22LIIQ29MrDOSILzDn6qbheO26DNBUuRqJ4XTURjDUtbvPjyiXSg+rigAOTSXI6PSXpbGOsUU0q7FnOhg4tpJQaCZFA3vIHRchNGPDxY23Wdo3WxNkCPI8Kgkme45bssTrO85but516zXk4Tr581JMKSn+8S7UXwGMlVr0S96zw1WRzSPYwbGzi8fVMDOTHJ8jCgfYJbxeDt1nIEZR3cmMrTEwSm8x7SESyeMcS0IJUdQf2MJEsRrfqWqssfijxbGW4o/W5AsI4UgAycEby2w7ypZMG3+jJ2lLaAMRVUFvSHNi4WHgdhjfjrignam9I4bsyyqlCVACT/rUqgzjCCo9EeAT99xW2RVSaD2rWQ5oZQNWOxxgAicEHywza/FObHNvDi9rCeJKWo4RReL923fxGB+1WkB34M8B6+7pgp/q8cjw/vtI1EvCgoU4bsiDCMIUdlN3qb6F+Mzl+g+rLKtfL2Wd6E4KaLjikRhM/Q7jnjPovUx5WjhDHU2PZqDsWFJRnfroNxK2NcdcCItwg/RQ3FOihHoRYzs6U30vjC9vpqdotMyjCAejeTgGfxM08bXXnaeGymiEYfmwXZqZDiK60EK048WTq2qNUNgjxvWJU603gG8wVbRCHt8bJMvacXEzIywIux9YbKe1mIE9IgTjJ1F4p1hBElX9aE08h7iTEg3XoLw7wPIR9Hsrzw/uNXIT0cTqJIDXpQ8BpI8DIsnKY1ibHBWLOMDkWwdn7I/CYQYjn90LJI5XXZlW5YgKAR89EQzJUgr3nOP4ETVlVY5bztZqdrJvzi4+znoy3+aXERxnP9Rg6MpyolAhYjIScG7UbBvdsJ/kAv+QhXuLEsQHOW1EW/9z6SRYzmuSAMsg4JOTycd3mXqHVfwCZkko53kAn3JH2X+xLIEQd914yDNaTTHclwRRcKC/90qLYkfKMSryUnBu058sM1XhePGFfHBk94jpj/pwyweWJYgC4Kb/7PGNY1PuifiiR/TjSvmhbb8Mou8y6g6I3Cc74RI4ob2dZ94i5Fqe0USEf29KcsvgvTlnjebk/qu5biif5Ww9N0GZ+UP4gfovesVva3FEG3jCs15ZIw2ag6cRkDLtiA9eWBs/Sga/lBl5MGqUN3f08iXDGoyAmFFWcI5wJt/3n2KXa/QQbXwpGDtRh3kYoLAgg4GjOeiC/UlQo7wD/FHo2P6sAXVlCoNgoBDZe5ibEvhXahMxxWDiI97RHfEeQi7tRRBcKzwbXjrXIVfv/1RlLHZyPEKYbmWgnRFoMFZPpPSyHBdE+knnOnSevAkTCdIs2vS5/CGWYp1j4UgRmG/fPfd4FsBThDpbIIAVegVhGlauxCSI+yO2CxEUAIhphBkX8mk8xTehWLsKhDj1AR6xXvJLenxiFj5nrFrjVRPZQ7dWhD9u4d9SDU7vZUKVZbhlKkr0VKkbYYU5ii/MTaw+z4jgZdppY+Az112DWHUyDFjszdYNy59TbXF0L0FaXVOuhlHeS0FKc7GyjgaDG2KxYdC3MXwkwSJB8Zi95TR6zMs4gxzQv+TYURN0XQhSIvbuwhALQVQi1Gx+ZpQ9o6RBdkLkRL0RMA3oQovwchcPdOIl82Y+kq8n8h7YV2sVnfpJzEuw2Cb8P1TsV8OitOXsa8Vh3z3ixMoJYlEoMFd9hRejFeIlJlCFkP3KtFOixTRtD/OugWJdqFAjrO1J5thSEqXIaYkSIbw6RnNN7F8KnoKl+uZxkDZtG6gn1ifrNmHQfddAEZ/cvTme+aH7sllYiGQ0kQgAIsnd0OOsB6JJp2Y+qimcFkEypogGHXrss04WZ4Upn4n2TPpbw4Cje7yC8GMCw1OXfWG6nXfrJo1QbDN+GUjgUFBLDEyPZlWagSw5Zq3HsY6RjcYkWDWBIGtJEMJAlAKW1yTfmUEODKN1Aj4XWW3o4s9NXVIwSEUZshai5A+I86N4DubTxIMwWDijsCChpHpDaZL3j7b7TqnQiE9q9i6WC4ZBNguzF4NHeS5sEdZtyB9mjwrTCNtgkY2u0of0hZUhtILAZCDD5KNJgeGvewfeuUpXq4QgmBX81PxgvW+R9P3Jb59Re90pPzECPhd5Xzc0W/XdeKQ4n1Vqhg21S+EIGObGp7GYnmbeCgGlYiTpem9g4aQD3VBAOOOr6K8v6eL8FRCGV2v18dRiZIWQhAuGB84rUyUgM5+8/ANyU06pyHFxyDgc1YuwMzlH2O8DL2E+dM/GZmgMII4HI4HjFT8RFqM/vzEtbzQHQF8CPUIEkn43Y7uiROytzRQz9M3zAkjyOjGndxw8NuGaX4iITa8xeV9/cStvNANAZ+rvA6tx3jdEkglmJJfpAoi+rkwgnDFsB/rt6IV1CaPLmhxlt6jLWziUNXuaffh0MhrEj+Vvg2u8lqgYOY2n73eQJ3hnzsIWQeJrT5YE9mL+zNj/Yy6RmaWjg02rNKa3npX1e3dRFkGk4xn8h35eFuwkSxy06xQze+1ysiHcD5XBczAsgpT80rJN3KCIM0u761YXTdrXHA4QpW5pwd21ScrzI0Tpi4+rrAfdhFlRoQOtFnGSTJKidw8o7FGrtYDREuQg5BdWBg0ZUpZeAvCKyZakWb8FfNrE9wHWGU/IzbdDSVTp3Wr5OfdhC4I8yNHNLgRjD10XmjrMg1BczJIo3vKdJUpTyNzpvQGYkGF0Y7FpYHa52P9jLoWOgaJKo2vCM1cnxgPgvacUFXtrLznTde0Dw+rdHMnoQu1koPno4PSa6tdVdXRPOXTPz58WgJyrEGeTScH3uCvmEUOXua6tCBcMCrpAfydwq+NcnwccZAWvNuiFg07SinO284+ezhn/WCh4ph3XuNmPkuX846vkJu2CDgQ3S6mqlWlTdt3DnxkjI8uLUif6oaNQ45R+m4TGRbYTkaGQ2zYmR09h9FnTw6ej+NEOeVYhNW87aq81ZgiMSeVBmdlJR9vWIgc/PV9l5nk4CUhphYlKVO0IiE8mpjkcVbeOGO7bR8tajtICiZ0EappXJFVgog8nLA9c4NbdclPtrplE7/BVXE/jK9dBxl6vjDTVbEGA/OqdCOJDl8gWmCsPHRxfgbgV8T6ZXOND3PCbaxobystGN3V00qQMdnI0xqXLxufBBuzsDM7AYtlfM/ZzSg8YfnSqofocGgxPoXx4q9QRuWiZWcpD5OR6jezlCEkuq4tCNcQrchb+DsvC23ZQVLobyWFozqIUgxTyLrrzHV14Nd72hE/kx0dj4GuCRXrTk+w/i8DH1nbx+csmw8Y+eeqMy2pKaPLvaHa262gm+6VbX/JWVMiamQrMpvu/p0GmJB5IKAMPfcgK/isEWBxMLgRL26qPw2r5JuxUfPHnlDdaiN0zCYN38SKKqKot6Bn/V+Qo3vZZ6IrWrRNpcH6czOJq0ccQ0BqdZXei3fwtzRk4DBI8SS6ZiuLQ7veiIZf6676sJMp46L3ov81nqKaKtkGbGn+szdQb9J2m+Tq+Z3lX2CU3IAQ2bTkyRMQ9oQd9gbrRwkTJ0CQIQTheqKrtRt/pQN1pkexeP0kOk4rxwYaXhn4vNfnNffU7jCjwsZMGZyimky1eP9OfKfyuMrUB/Em5GsJprhGd+UMVVWvoJRdixeOeRsMteeeUZVe6Wmq5YuTlnGGEaRtome2qihrkXPeveed+leR+CrsnVqpBY1N7oqvoKv1t4SjAS0CEIZP0Rhw2lGsNgfw5n4JreIL3mCt5j1isQLSuW50l10SYcplClFh8tUWpPgoexgTeQO16P5ZyxlGEJ5t7Lhdjgpe5FDVh8fs8fesdqcDR7Wz6tF2qnwhnTg8g73jigjGFag26UQWGxYnyRG+2LgNamxDd2xbNi0MH09gpmcGdlDPxICb99n5XiX+8rGjewmzggutqLiJ9SUzON5yTa0+SuisVLE5KfhAm/8sXGt4g9gKsrTgyIBWXLeAwgM+XVYoGQIifAwNL9/6MQG/EfjlhAMAdaXBugqrZsZ2BOFArnVO9aOjXxIP6kfjioj5R2fFKyfvEyHQhJbDmeiBVfx4t9x2bl5oqwdrEwe54jwDJ6OVOIOEsbMuDLPykhw2KdADKolcZnVdbdmCREHd4qraeRKJTLZ1JqKZya9/To4LJgV38K8ULe1sX7ew9WMbEJb2sSxdzfop14np3Esxnft6P1+L3tiyixWLZd+GNt1OOY1NS15njUAbtgotsAs5eG5t34JEi6zBVbYRn/rOiN7Lf8sh0IZDXC8uCdRsspxmgyhk+xYkmre+/Turo/fy31II7CUOOt9u5OAI5kwLEq0Ofnf5fVgz+Fr0Xv6bjsA6dIPnmq5FhgrkTAsSzb8nUPd1LD7dgXu+CCedmQhQ8qKdycGhyzmC8ExhZfZHVGWX4vIAv5fOcAQisCJ4C+xYXWJ4yoITzLkuVjw+3Fwm/My0CBivUq7f78M07tV2mqkarEByniA88/i09An0uPhHQtLpi0A1ulRz9E3CWOk52cWKhxBbza9SKLsUn8h+EP9M3gtBoAsTIzfmGjk4MnnRgsRWAXS5XsS9JbdWx+ppm2tGdqiUfsXIQ22MxCbvCMLB9eHjKwwiudGCsUaCnWNpdWGL/p1WMa6gF7Z5SZAomH1rJl/FfV50NaP5zv6fvcxUdqPZRt2yz0dqCXlNEA5Pn5HmP+HSMpY0UhebSSHQnUKF+a4dLLiIQijvCRIF0u8suxxWxH+Ce9Ot+UV1stB/kFH2Mxx/9qCFdDJEFUmQOJhhVO0yfOO9HN6SKIRw43h3wDjeX+NgyptbSZAkRc0thDBGb8J+lU8mCZLL3tvQYvza6AMzrQioJEiKUgm4ppRHmONGGFb4PIIOTxHczo9xEh19FutF95cE6l61c0ZE6i4JkgaaDc6ya6lCl2Ib5HxEy4mZL7SQdTB093fYpMrqENQ0YLRVUEmQDIurwVn+bZjj+RwqGDfnaSuyoNB3owv1OAkXPO7dsy1t+2QZQmbLaJIgAooNq/PXYa/XReiifALirLj42IHB9hvQbTUG3H8UkOW8ESEJIrio/SVl09QInYsmZSbMjvLjBdyCk0glTkWh+riVdMzGVZMIrfY21XLDFtJlgIAkSAagpRvF56xcgAo7GQPgs9Al4wa8uYVEWEokp6YrKyb8IVzvxS8I2SHY/w2gp1fjDdW8ERNGXmaJgCRIlgCKiM5nylSl4CQWYSMJVU+Ol4mxTkeEH5eo0vbSUN3b8c/lvURAIiARkAhIBCQCEgGJgERAIiARkAhIBCQCEgGJgERAIiARkAhIBCQCEgGJgERAIiARkAhIBCQCEgFjEPh/2sq4NXcARGIAAAAASUVORK5CYII=;fontColor=#4277bb;" parent="JeMylpXorUwbxhyJ5Kl_-8" vertex="1">
          <mxGeometry x="23" y="25" width="62.541583499667325" height="60" as="geometry" />
        </mxCell>
        <mxCell id="JeMylpXorUwbxhyJ5Kl_-7" value="bx2.8x32" style="shape=image;verticalLabelPosition=bottom;verticalAlign=top;imageAspect=0;image=data:image/png,iVBORw0KGgoAAAANSUhEUgAAAMgAAACqCAYAAADoZADPAAAAAXNSR0IArs4c6QAAAERlWElmTU0AKgAAAAgAAYdpAAQAAAABAAAAGgAAAAAAA6ABAAMAAAABAAEAAKACAAQAAAABAAAAyKADAAQAAAABAAAAqgAAAAB4qRm4AAAe/klEQVR4Ae1dCXRbxbmeubLjbBBIYkIoTSRZcgLEWxaykJBQShsgKVD6aAltSvo4pQvtg9cFWtqG0kIpbWlL20NpU6AJZetjLYVAWRMSh6xeEpJYsiQnbPGSzXEcx9Kd941tBVmWrCtp7ibNnKOje+fO/PPPN/PdWe8/hEgnEZAISAQkAhIBiYBEQCIgEZAISAQkAhIBiYAlEKCW0EIqQfwlZdMocygREhkVD4dCHZ2KGm53B7fXxT+T9/oiIAmiL74npDe4plxECS3lP0aJlzDiwsPx+A0gxIlIyS8ieLQPv72MsvcVRv2M0l1EZe94Q3UbkkeTT9JFQBIkXcQ0hG9wV16qMDaLETaDElbOCOVEMNL5CGFvU6JsJIq63tNYv8XIxHMpLUkQAaXpd5YvJJRczAi5COIm42c1XNug0muUqP/xBOv/KiDLeSPCagVpG+Ab3GVLKKOfh8KcFMNsoziaFui6AV29Jz3B2t/YSG9TVJUESQN2n7Pi00xh11JGPoNow9OIatWg6AXSajBmVWmo9s9WVdJMvSRBNKDvc5ffhvfuMgSdoCG4XYN0oXF5lirs957G7evtmgnRekuCJEHUX1I+RVXJdwHQ1QgyJEmwXPXeiFbyt55Q3WO5mkGt+ZIEiUOq0T1lOmP0Nsw8XYJH+Y6Pj1D2U2+g/h9xMOXNbb5XgBMF7ZtYUUUU9lN4LMJP4nICGVwwsoMpZHlpoO7JWO98uJYVAaXsc5WtAieuwaXEY/Bav0Wh9MaSQO1bgwfLnad5XSEaXOU/BwD/i+K00zSt2bUPM1/kUazY8xdKzru8JEjvtg+FT2u6c76E9cvgEULpHd5A7V36JWG+5LwjCFqNh5DppYA+7/KuU3XbRhWy1NNYt10n+aaKzZtK4nOVLwbSK/A7zVTEczPxMFqT36A1uSXXspcXBAE5fo2Cuwk/JdcK0GL5WecN1s21mE5ZqZPzBPG5KmowT1mRFUoychoIsMNYZPyyJ1T/TBqRLBs0ZwnS4C6/kjL2AIYaJ1sW/dxVDOus9O5c6HLlJEF87rKbsAmPd6tkl8pUEtJ/eoO1V5mqQpaJ5xxBsOP2AWyPWJYlLjK6OAQ2Y1wyQ5w4YyXlFEF87oqnCWOXGwuhTE0DAjtBkrM1hLNckJwhCGaq3gC68y2HsFSoFwFK3lMIu7gkUF9vJ0hygiAYc+zAmMOWbyg7VRYBuh5SqHJRSaBmkwBZhoiwPUHQcvA30hRD0JKJiECghTjoBV5/7Q4RwvSWYetZHpCD24mS5NC7loiVX0wibK1vYvlUsWL1kWZbgmBP1VpAUqYPLFKqzgicign4f+mchhDxtiQIWo4X0TfMqS0NQkrTXkLO8DnL/VZX2XZjEL+7/HeMkf+xOrBp6ncI31i8C+siTZTSjvi4MD53KvI8HvuPx+HZ2Pjndr5HBXzFE6zjppMs6WxFEL+r7AbsYfiDJZHUptQhkGAzQH8b6zUbiVrg8+7Z9o62qP1D+Z1ll6uUTIH1xPJe643EgxCO/qFsc/c3rJNcZ0VtbUOQ3a7yeegPvgoQC60IZBKdwmgZ1oAUzxGmvlzatH1nknBCvHuM2an0UrQ0n4bAMUKEGiQEJP8WrD7+UUtyL5TM+n5EpdeHieIqIGrD4mA1t2api7MNQTDu+AAInK4LCmKF8m8jnidE/T8zrYH4SyrPY6q6BDuZv2iTDZtdClXnlgS2b05UHP92zl6oUrY8zJQZKqX9WsphauTWS5o23JkoXrZ+tiAIn7GColYflDejMFagq3BrtoUiOn6Ds+J6StnXILdStGzB8oLAzx2V+XzJnClKhN3drdBPhBktivrH/6NuRD4bXFcQ7y/i3vIE6bNquFxEZnWS0QAQ78BAc6VO8oWJ9ZdMmcNUCizpp4QJFSwI5zr8K8CGNUYovbqbOMahe6rJFRF186JgtfBNkZYmiH9ixQWwhfsKELLidHQA3ZdbvMH6f2oqQQsFanCWz0TB34mxyicsohY7RAr9raRgVCcpKFY12gvAuIUMJRECchCMRVSiKPPmN24SajbV0gTpmSenpMQihRhVox0V6xfeQN0voh52/eczYTh45/fQf4IZeThKHK3NtKirgznGoeXQ3EUaAlIMBSn4f/8KzDadH9x6rsi89JcvUnKWsrDecR/m/nm/2TqO0mfwldwV1lFIjCb4TOAuTDt/F9L6DX7FSO8vpZuR/fvI0PZ2xTG+mymabR6jheghRRFIgV3B/YXG3OH0rmvmB7Y8EuOV1aUlCbLbVXEuQOBNpe4FphG9dtjr/R6OCLhfY3jbBfM5Kxdg5m0FXsnCW2yV0HAbKXx/Pykc3UWUkVrB4UTo7UJF0LwkJ0WcvND5wS2uOL+Mby1JEIsZWqjGzMqcjBG2WUSspTyFg4GybiV5dT5ICj/YzwqGdNKC0RmOK+K6UFrBpN86P7hZ05pKKomWG/xi3HGjVayQYNvHQ/lEDl5ZSgP1n8U6zg9wyQ8KzcTtaWFD3nyHjOjeS4aO76AFY7SQoxAtxEjSTUaTLvyHsRqMdieT1HvisB9mHDUuouUIAlR+HKejGbcY/dHveAK1y8xI3Ow0uTlRRtSLocdBjbpgLxksyDC2AC+UiXNCmxfgiLdjqeLybhMnAyfFKfgN6xlfpIql6fn4Nc7p39cUMkWgzEmaQnAmjy2yEfEo7DpdicNjVmeSh1yKs9t1ToVCHC8hT3yTZLzrhsdL6I497AnVPh7/kN8/45pzDG+afgt8GY4rEolP5HcUvY8nsdC+cl5gE18eyNpZiiDYTnIcOTJzr9VRqtJFnqba17NGNocEoFyakJ2eqWCYdt+Ez5sfLg3V3Zsqiy84Z8zvooWvYTyi8LUKPgM1BP86uC2Y8Vw1P7SFT1kLdZYhCAphBXL230Jzl56wozDCvBhGmF9LL1p+hIY5pZ+oRH1iUqh+Vzo5Xu2evWQYO/4gKprmKV2N8n1o6f82L7TllxrDZxTMSgTpQg5Eg6gVFEkOrUhlEO5N97RbUJlFLKweQRfqaZFdqFTZsQRB/O6yP2Od4fpUyur0PIIuw6XeUC3va0unEwJrXNNfROVemIF4PtZ5BttKVs0LbjX8M11LEATdKwyuTDrlidHlIMftGRScjJImAmtc0/Yjyqkao60DKVaCFH/RGF6XYJr3v+iSOoQ2uCowrcvMOQINU5M4SkySQ6/CjZfLyA8xjX9fvHfMfTOl5FGYjl01r3Hrlhh/0y5Nb0HQeuxB7j9uAgI1mLOvMiHdvE7yTde0alS6WTEgtOMz6kcdIMXcwJa3YvwtcWlqC4IjCq7GWpEZ5OiU5DCn/ikKuwHfpKwbQSKbOonyh7nBrU+Yo4m2VE0liMLI1zVvQdOWH02h8Aa7Q1NAGUgoAs0TPVWK2rEUZY6xCJuLrtRdQhPQQZipBAFQ83TIUyqR6/D1nyRIKpQEPm91TroZH74tRW/hbH6G9AnHlO/h+t8n7i14YRpBGlxlPzIBj26VRL5pQrp5l2Srs/RyFaffYv3jEpCiKJYXH4HB5rdM9EwtbvJv/cjPWlemEUQh9Isx7xKjULl3UnBHrVGJ5Vs6LS7PYtjp+hLKdRF+w0COlI4pCjcC+OWUAU0KYMoslr+kbBoGagnNu+iIwyEMzE/RUX5eiu4ZVyiOaxllV6KV+FgGIHQWBxuGZxDPkCiKIanEJcIi5HNxXvrfUiZ8I5v+Sls3BT6uaHGX7qCKshVdqG9nSA6ewWHNzkmWNSVrSguCj6K2Y8HoHAOL/0O0HuMNTC8nk4odVyCD/baxZ5nhGrQillyTMmcMQomhp0GhK3xPlgWYt9EzGVdkAFblh+7JZacHdtVnEFfXKIYTBCvnfEu7kS3X0dJg3a90RTEHhbc4S5ejlL6IrHk0jLWzRqCAsc9DiOUIYsIYhH46azTTEcBowq/d0hGRb2ExJlgIctyGfHuMyjvGMVcblVY66ZhAELYgHQWzDUsdEf4hlnRpIHBaaPdqEOT1NKKICOre5yqtECFIpAwTCEKKRWYghax6T+N2bl9LujQRUKli+EIutrcvSlNN3YMbShC/s4L3Mw1zaLYtvRHOMCAySGhc4671WOgz9OUCSyiZfFCVQe60RzGUIFhMEm59e7CswqzMc4M9l88GRwD7p/40eAjhT2O3wQsXnolAQwkCBY0kSNAd3F6XCSgyTi8CxQHfIxiLvGcgHgXN7tJLDEwvZVJGE6Q8pUbCAtB/CxOVx4KYSlYamn3VWgclGU0Qw/ZCUZVI8z0CanaBw/GIADGaReCTWzM+gUiqn2EE4WfmJdVChwcw/va0DmLzTuToxp3bkWkju6rTrASyYQRRIxGvgRl/38C0cj4pzAb+08BMDttfctYUA9MbNCnDCAJj0IatyiLHlrCIMSjyNnoIowqG2qMKR8LTrQKPYQRRKM3kW4GMcMKCU42WiC9OmDZXS7h8DzMu2MA/Mms1CgccO5GHLQhTi40CGG+8pmRp8aOFX3DOfuFZ95xjRx1D177snD0/WVjp3w+BV/vd6XszWV/x2qUb1oKg0o7VrlZ2IXG2xZ54CaudM3/7nGv2vuMqre+kysXRc7ePO2hbfFh5PxABbL9eO9BXLx9Wmq7kDZ7pl6UbR0t447a7MzIWi06GOJwH3EOQ1RNnXYdD6L/dzeg5HRS22xO4RY3r+SyNdCkQiCjKNgUnLRvjqEtLOhvPrJrfXUh+2kXo7MMRNmSDp+qcWf5t72iJqzWMcQShZIxWpbIJd5Q52t6lQ5942nXeOR3RQ0ANImY2els9Lt+b1eIq5QxJ+KIRrP+g9XK9s/KpbqpceIjQk2O/VXGE2WnQw6YE0dE4NVoIHC1c1Hu0MFE4EQ0ho+BKYQNxrBHfuhkyXd820TN7TJO/OgpKtbPynjB1LDlG2LgjSboiESq+Gz8oU6PKCfoXmhbeHJ2tbEjTAVow/hhVRqPgRie2vTRQe96g8NOO+BHD0qWBAKM+1E1DCBJ20DM2uiu/0cWUG3BwzOR2rBP0apq8O+DgdUCwE1ppU+jmSPFcy2N2gBT6W0nhqGPEUYxD4zXPdkRJoeMxYFr0t3cYSt7VOwNhprQ1k8KDOEJ6FcYWaVn9Dys4C1SwM5IgGavewZR9+2iR2kkKTsM7P603GD8Tj5OC/xK9e950VZ0/P7htTcbK5VFErKjvwTcbwnMcJvTIPjak+RApOP04Vcagd5BRFxmVOXZIIkRPyxIkTJTOZlZ44KBSUIzrcenk1gFSDO35RTCiTIUZPT0d2XkdlmHruyB+oFTU/bTwvTY2ZNRRPtimdGS22LIIQ29MrDOSILzDn6qbheO26DNBUuRqJ4XTURjDUtbvPjyiXSg+rigAOTSXI6PSXpbGOsUU0q7FnOhg4tpJQaCZFA3vIHRchNGPDxY23Wdo3WxNkCPI8Kgkme45bssTrO85but516zXk4Tr581JMKSn+8S7UXwGMlVr0S96zw1WRzSPYwbGzi8fVMDOTHJ8jCgfYJbxeDt1nIEZR3cmMrTEwSm8x7SESyeMcS0IJUdQf2MJEsRrfqWqssfijxbGW4o/W5AsI4UgAycEby2w7ypZMG3+jJ2lLaAMRVUFvSHNi4WHgdhjfjrignam9I4bsyyqlCVACT/rUqgzjCCo9EeAT99xW2RVSaD2rWQ5oZQNWOxxgAicEHywza/FObHNvDi9rCeJKWo4RReL923fxGB+1WkB34M8B6+7pgp/q8cjw/vtI1EvCgoU4bsiDCMIUdlN3qb6F+Mzl+g+rLKtfL2Wd6E4KaLjikRhM/Q7jnjPovUx5WjhDHU2PZqDsWFJRnfroNxK2NcdcCItwg/RQ3FOihHoRYzs6U30vjC9vpqdotMyjCAejeTgGfxM08bXXnaeGymiEYfmwXZqZDiK60EK048WTq2qNUNgjxvWJU603gG8wVbRCHt8bJMvacXEzIywIux9YbKe1mIE9IgTjJ1F4p1hBElX9aE08h7iTEg3XoLw7wPIR9Hsrzw/uNXIT0cTqJIDXpQ8BpI8DIsnKY1ibHBWLOMDkWwdn7I/CYQYjn90LJI5XXZlW5YgKAR89EQzJUgr3nOP4ETVlVY5bztZqdrJvzi4+znoy3+aXERxnP9Rg6MpyolAhYjIScG7UbBvdsJ/kAv+QhXuLEsQHOW1EW/9z6SRYzmuSAMsg4JOTycd3mXqHVfwCZkko53kAn3JH2X+xLIEQd914yDNaTTHclwRRcKC/90qLYkfKMSryUnBu058sM1XhePGFfHBk94jpj/pwyweWJYgC4Kb/7PGNY1PuifiiR/TjSvmhbb8Mou8y6g6I3Cc74RI4ob2dZ94i5Fqe0USEf29KcsvgvTlnjebk/qu5biif5Ww9N0GZ+UP4gfovesVva3FEG3jCs15ZIw2ag6cRkDLtiA9eWBs/Sga/lBl5MGqUN3f08iXDGoyAmFFWcI5wJt/3n2KXa/QQbXwpGDtRh3kYoLAgg4GjOeiC/UlQo7wD/FHo2P6sAXVlCoNgoBDZe5ibEvhXahMxxWDiI97RHfEeQi7tRRBcKzwbXjrXIVfv/1RlLHZyPEKYbmWgnRFoMFZPpPSyHBdE+knnOnSevAkTCdIs2vS5/CGWYp1j4UgRmG/fPfd4FsBThDpbIIAVegVhGlauxCSI+yO2CxEUAIhphBkX8mk8xTehWLsKhDj1AR6xXvJLenxiFj5nrFrjVRPZQ7dWhD9u4d9SDU7vZUKVZbhlKkr0VKkbYYU5ii/MTaw+z4jgZdppY+Az112DWHUyDFjszdYNy59TbXF0L0FaXVOuhlHeS0FKc7GyjgaDG2KxYdC3MXwkwSJB8Zi95TR6zMs4gxzQv+TYURN0XQhSIvbuwhALQVQi1Gx+ZpQ9o6RBdkLkRL0RMA3oQovwchcPdOIl82Y+kq8n8h7YV2sVnfpJzEuw2Cb8P1TsV8OitOXsa8Vh3z3ixMoJYlEoMFd9hRejFeIlJlCFkP3KtFOixTRtD/OugWJdqFAjrO1J5thSEqXIaYkSIbw6RnNN7F8KnoKl+uZxkDZtG6gn1ifrNmHQfddAEZ/cvTme+aH7sllYiGQ0kQgAIsnd0OOsB6JJp2Y+qimcFkEypogGHXrss04WZ4Upn4n2TPpbw4Cje7yC8GMCw1OXfWG6nXfrJo1QbDN+GUjgUFBLDEyPZlWagSw5Zq3HsY6RjcYkWDWBIGtJEMJAlAKW1yTfmUEODKN1Aj4XWW3o4s9NXVIwSEUZshai5A+I86N4DubTxIMwWDijsCChpHpDaZL3j7b7TqnQiE9q9i6WC4ZBNguzF4NHeS5sEdZtyB9mjwrTCNtgkY2u0of0hZUhtILAZCDD5KNJgeGvewfeuUpXq4QgmBX81PxgvW+R9P3Jb59Re90pPzECPhd5Xzc0W/XdeKQ4n1Vqhg21S+EIGObGp7GYnmbeCgGlYiTpem9g4aQD3VBAOOOr6K8v6eL8FRCGV2v18dRiZIWQhAuGB84rUyUgM5+8/ANyU06pyHFxyDgc1YuwMzlH2O8DL2E+dM/GZmgMII4HI4HjFT8RFqM/vzEtbzQHQF8CPUIEkn43Y7uiROytzRQz9M3zAkjyOjGndxw8NuGaX4iITa8xeV9/cStvNANAZ+rvA6tx3jdEkglmJJfpAoi+rkwgnDFsB/rt6IV1CaPLmhxlt6jLWziUNXuaffh0MhrEj+Vvg2u8lqgYOY2n73eQJ3hnzsIWQeJrT5YE9mL+zNj/Yy6RmaWjg02rNKa3npX1e3dRFkGk4xn8h35eFuwkSxy06xQze+1ysiHcD5XBczAsgpT80rJN3KCIM0u761YXTdrXHA4QpW5pwd21ScrzI0Tpi4+rrAfdhFlRoQOtFnGSTJKidw8o7FGrtYDREuQg5BdWBg0ZUpZeAvCKyZakWb8FfNrE9wHWGU/IzbdDSVTp3Wr5OfdhC4I8yNHNLgRjD10XmjrMg1BczJIo3vKdJUpTyNzpvQGYkGF0Y7FpYHa52P9jLoWOgaJKo2vCM1cnxgPgvacUFXtrLznTde0Dw+rdHMnoQu1koPno4PSa6tdVdXRPOXTPz58WgJyrEGeTScH3uCvmEUOXua6tCBcMCrpAfydwq+NcnwccZAWvNuiFg07SinO284+ezhn/WCh4ph3XuNmPkuX846vkJu2CDgQ3S6mqlWlTdt3DnxkjI8uLUif6oaNQ45R+m4TGRbYTkaGQ2zYmR09h9FnTw6ej+NEOeVYhNW87aq81ZgiMSeVBmdlJR9vWIgc/PV9l5nk4CUhphYlKVO0IiE8mpjkcVbeOGO7bR8tajtICiZ0EappXJFVgog8nLA9c4NbdclPtrplE7/BVXE/jK9dBxl6vjDTVbEGA/OqdCOJDl8gWmCsPHRxfgbgV8T6ZXOND3PCbaxobystGN3V00qQMdnI0xqXLxufBBuzsDM7AYtlfM/ZzSg8YfnSqofocGgxPoXx4q9QRuWiZWcpD5OR6jezlCEkuq4tCNcQrchb+DsvC23ZQVLobyWFozqIUgxTyLrrzHV14Nd72hE/kx0dj4GuCRXrTk+w/i8DH1nbx+csmw8Y+eeqMy2pKaPLvaHa262gm+6VbX/JWVMiamQrMpvu/p0GmJB5IKAMPfcgK/isEWBxMLgRL26qPw2r5JuxUfPHnlDdaiN0zCYN38SKKqKot6Bn/V+Qo3vZZ6IrWrRNpcH6czOJq0ccQ0BqdZXei3fwtzRk4DBI8SS6ZiuLQ7veiIZf6676sJMp46L3ov81nqKaKtkGbGn+szdQb9J2m+Tq+Z3lX2CU3IAQ2bTkyRMQ9oQd9gbrRwkTJ0CQIQTheqKrtRt/pQN1pkexeP0kOk4rxwYaXhn4vNfnNffU7jCjwsZMGZyimky1eP9OfKfyuMrUB/Em5GsJprhGd+UMVVWvoJRdixeOeRsMteeeUZVe6Wmq5YuTlnGGEaRtome2qihrkXPeveed+leR+CrsnVqpBY1N7oqvoKv1t4SjAS0CEIZP0Rhw2lGsNgfw5n4JreIL3mCt5j1isQLSuW50l10SYcplClFh8tUWpPgoexgTeQO16P5ZyxlGEJ5t7Lhdjgpe5FDVh8fs8fesdqcDR7Wz6tF2qnwhnTg8g73jigjGFag26UQWGxYnyRG+2LgNamxDd2xbNi0MH09gpmcGdlDPxICb99n5XiX+8rGjewmzggutqLiJ9SUzON5yTa0+SuisVLE5KfhAm/8sXGt4g9gKsrTgyIBWXLeAwgM+XVYoGQIifAwNL9/6MQG/EfjlhAMAdaXBugqrZsZ2BOFArnVO9aOjXxIP6kfjioj5R2fFKyfvEyHQhJbDmeiBVfx4t9x2bl5oqwdrEwe54jwDJ6OVOIOEsbMuDLPykhw2KdADKolcZnVdbdmCREHd4qraeRKJTLZ1JqKZya9/To4LJgV38K8ULe1sX7ew9WMbEJb2sSxdzfop14np3Esxnft6P1+L3tiyixWLZd+GNt1OOY1NS15njUAbtgotsAs5eG5t34JEi6zBVbYRn/rOiN7Lf8sh0IZDXC8uCdRsspxmgyhk+xYkmre+/Turo/fy31II7CUOOt9u5OAI5kwLEq0Ofnf5fVgz+Fr0Xv6bjsA6dIPnmq5FhgrkTAsSzb8nUPd1LD7dgXu+CCedmQhQ8qKdycGhyzmC8ExhZfZHVGWX4vIAv5fOcAQisCJ4C+xYXWJ4yoITzLkuVjw+3Fwm/My0CBivUq7f78M07tV2mqkarEByniA88/i09An0uPhHQtLpi0A1ulRz9E3CWOk52cWKhxBbza9SKLsUn8h+EP9M3gtBoAsTIzfmGjk4MnnRgsRWAXS5XsS9JbdWx+ppm2tGdqiUfsXIQ22MxCbvCMLB9eHjKwwiudGCsUaCnWNpdWGL/p1WMa6gF7Z5SZAomH1rJl/FfV50NaP5zv6fvcxUdqPZRt2yz0dqCXlNEA5Pn5HmP+HSMpY0UhebSSHQnUKF+a4dLLiIQijvCRIF0u8suxxWxH+Ce9Ot+UV1stB/kFH2Mxx/9qCFdDJEFUmQOJhhVO0yfOO9HN6SKIRw43h3wDjeX+NgyptbSZAkRc0thDBGb8J+lU8mCZLL3tvQYvza6AMzrQioJEiKUgm4ppRHmONGGFb4PIIOTxHczo9xEh19FutF95cE6l61c0ZE6i4JkgaaDc6ya6lCl2Ib5HxEy4mZL7SQdTB093fYpMrqENQ0YLRVUEmQDIurwVn+bZjj+RwqGDfnaSuyoNB3owv1OAkXPO7dsy1t+2QZQmbLaJIgAooNq/PXYa/XReiifALirLj42IHB9hvQbTUG3H8UkOW8ESEJIrio/SVl09QInYsmZSbMjvLjBdyCk0glTkWh+riVdMzGVZMIrfY21XLDFtJlgIAkSAagpRvF56xcgAo7GQPgs9Al4wa8uYVEWEokp6YrKyb8IVzvxS8I2SHY/w2gp1fjDdW8ERNGXmaJgCRIlgCKiM5nylSl4CQWYSMJVU+Ol4mxTkeEH5eo0vbSUN3b8c/lvURAIiARkAhIBCQCEgGJgERAIiARkAhIBCQCEgGJgERAIiARkAhIBCQCEgGJgERAIiARkAhIBCQCEgFjEPh/2sq4NXcARGIAAAAASUVORK5CYII=;fontColor=#4277bb;" parent="JeMylpXorUwbxhyJ5Kl_-8" vertex="1">
          <mxGeometry x="120" y="25" width="62.541583499667325" height="60" as="geometry" />
        </mxCell>
        <mxCell id="yRxVq_1gK0lk5HWuicpu-101" value="Public Gateway" style="image;aspect=fixed;perimeter=ellipsePerimeter;html=1;align=center;shadow=0;dashed=0;fontColor=#4277BB;labelBackgroundColor=default;fontSize=12;spacingTop=3;image=img/lib/ibm/vpc/PublicGateway.svg;" parent="yRxVq_1gK0lk5HWuicpu-100" vertex="1">
          <mxGeometry x="-27" y="125" width="60" height="60" as="geometry" />
        </mxCell>
        <mxCell id="yRxVq_1gK0lk5HWuicpu-102" value="Public Internet" style="shape=image;verticalLabelPosition=bottom;verticalAlign=top;imageAspect=0;aspect=fixed;image=data:image/png,iVBORw0KGgoAAAANSUhEUgAAAIAAAACACAYAAADDPmHLAAAABGdBTUEAALGPC/xhBQAAAAFzUkdCAK7OHOkAAAAgY0hSTQAAeiYAAICEAAD6AAAAgOgAAHUwAADqYAAAOpgAABdwnLpRPAAAEWFJREFUeJztXWmwHUUVDu4LbuUCf1DEckFBRdzYxAUokOTduQ8ioJaWC7gUGkQ2FQ2bVcG83JmbBEhAC9QqIUQsEZfCUMqesKgQBAQCkQhSCHm3e16CQpbnOT3zXu69b/r06emeO/e+N19VV6DenXNOd5/ezjl9etasChUqVKhQoUKFChUqVKhQoUKFAcbcK8efX4/G9gpCcVwQylNrkWhCuaoWitXw/6NBJMczC/wNf6N+C9/gt0hjTmPsXUiz7HpV0KC+cOwN0GGfhs5qBJG4ETpzk7aTc5ZaKMcUbeCBvJBn2fWe0RhuiD2gY+ZBWQUds8V3hxsVIhLbYIa4ExTjrKAp9p01Pr5T2W0y7TF36aZdoeG/C42+rtcdzpgh1qFsKGPZ7TTtEETxgbVIXgnr83Nld7RZEcRWKNcMNcQh1azgAmi8WtQ6Cqb3v5fdqQ7KcE8QtoYrRbAEjh5cX8vuQJ+KUI/E3EoRDMDNFIz4NWV3WGGKEIlbh5qtfcpu577D7OWPvwwaaAGun2V3UvFFbEEbw9ylT+5cdrv3BWCqPwIaZn3Bjb4W9xPDjfgA2K0v0Y5Q+Jv6TbL3WFuoTKF8pN4Uh5fd/qXh8Ob2FytrW8EjTln/lsjXTvBV53a9Apy143etV6dGpYLlk8vnzh9/USmdUBagcXeHit9eeOPCmnv0ou0v7eTNUwBEsjQVvyeBI+5tw0tH39TTTigLUOHZUOGNjo32NygbDL9ZPyca26Wbv40CINCwA9P1owZeG1KZXJRgI5RP9qQTygI08ElBKLbnaiT4Dr7/Ax4RobxfmWK1HSn+W1s0trdGBisFQNQXj74HaRIzzTY8waBsKGPeOqZ1mldoJ5QFmPZPzz9CxBrcnE3QMq7NoTxZL4e9Aiie6BmkFfSWiXM+KijIeIPDjLBg2tgM0I0KU9vFORviIWVJa8NQo3U0OYpCcdP8+ePP08mTVwGwHtjJtBJ0yoqnibx+C7U5HHQXtOr8UK6wr7zYCo298POXjr+kgyCMCup4hr6CoVC+nZIprwIggjDek/I8wvd3dY9c3IRCXUaoJYugt2JwlUDZ8u1HPnzzcNCMD84iWWvIOYYGW2ISy0UBELAUXGCQP3MjB9/tB8rzjzwzgbGt+xFQ4R/m6Pxf4NFLRxNG0c366VfKo5vx601yuSoABoIgL309xI26bw9d+MTLgcflOdrlPJNcfQW127ee8uWpFE3cBJJ0QnEmUzYnBVA0IvF9sj5Nub/2Y1zGMEzN0uxdD+U3ObKVDhB2tu0xCBXGSDcUPyNoxGi548jnQwGOvFC8BnkSCn0ZQw67QZJEIB3Bka80zI5G3wiVf9p6ioOd8uHNp1+pozt3weiroPKbidG/kCujDwVA4MaO6KxnKIVUS0EkHrBtJwxanbO49WaujD2Fsu27mHdhhOtoQ2N9Xf+t2FIb2bgbV05fCoA86WlcfFX3rWE2MxSxpi99B6bdMacMRfJbWbRhE/QXokF+YyOnLwVIaIlrCFq3Z32DdXRtJ2jrxTZyFo7UpetWqSjZDNYb8sgO2k3xFlJpQjlkI6tPBYDjao2SrXu6DtAP4ivmoSkOs5G1MOB6FrD9+RgMAed8Sglg/Wy3A8CO+hTit/8+eP74C2zk9akAyBs69AlipE6apGFP8FFVN7Lu2Da8EHf8LXVk7hmgUou4WovT33Ak3wrCC8Nv46Ew/khK/1aiw4yGnynyelSARD65lFDQm/E3qNABcWpIO1Rg26DScNsT6P/IVl6vQA8Yd0pDA8jEd7UwDkxHRTVawtbxpNevER9kK7NvBUg7V1eHbWkdyJGv2gKWk0makbyCpwRiS6kxhirahtX54n5cKjq/1XcEq4Ticcrpo5fZrwKgDOQywKvLD9ppYrwg+5iIXsgyYLLLd4yCKD4wk4ZTSJi4JJfcnhUgrcdPHBRgWRbNelN+mL1h7LmBKDFn/pWpANp1KnGxyl/maTh0C+cRvQgFwJj/nJ2/kvL2UcamLgW4s6fxA0nULKuCD01x6XbhhOXjL7R3kMBpgmn6nSJ7AQqQmIbtLqhinbHuFF10JXPjCYaiuJ5HdnskPnnWdS2uUGncwHJ2A4Zyc60pvmFSriz4VgCUAWUhTdVTyzLu/oU/2MTanswCINAneBourrcinCjWfCtHEmwE4d953ZG/pPyeFCAdnSehLYI96mE/hJ5E247CKCfWgGu2PmZDNxeA0UpGx2zHuLg89NGyR/vbM2eEUThHX4gbJxN9DwEh+8HvLoLftyxllLhxztMmwSLxQd6gkyvy0GdD3c9nXNHGyFgXPtwKa2ae+3HjiTvjrOtX9mHhT+6MtBTNHBE9kwXq5NImINsfGTPMs1mh8N6ACRA4la03Wh934tOID8rd0B1F3cO7FY+MSRBGHFB7Dfyb+k0Un4bfJHYOP9lH8hit2qFuTPPqfIYLHxLMHekdznxI9++AllB8zb1dKK/ohBKLB135ZDNfNLY3p6JDkfyCKy+gs6z0DvOuAPIC53YJW8ez+qAZv9OVVwZz8R0G801D5z/1Cldehl3vFXiztvQOndrBjwSkDV/c4NouGBll9CtEOAu0TnflNQUsuz8R1WPJS2tbR+eHsr8npuhVfdDxd8LJ5XPoGoa9z/sIBXjMT9uYjWYTXkhvSPPwGS82+Ljvrm7kEraAbgsgJnFUO/tQ3Nu7Thf3Is/uqTa5Uq79ZruNvUKHAINujTOA2MoJkWdDJWE0j4TNeSxz3cAO1Wu23Gj6Nt3BXw2N8B9fHY60oPwaTxLIg5KBzkQa7+naPjhAqIuqk4MxEse68ppEkoHTOCp+54OXwctodcLAa2KY6jU5vqqj4HXw308SUyf+bZU6AsI32IjBiHybDU8quZWv698w+1zL6I8RH7xShmZTpK+LCxhNqx+J7pauIpxBnfLrLaW1RvxlV/qKByNqyNoUr4Ny2TJy7/qKTMHgCILPAlf6hStAKM4nRuX3XOkjkuvnxqUrzhMwMwWs838o/mdybbL5RfJCrZJpwsat6BesACD/t/Xt5CecG+8FoNnX3C/ue45ZKuW6WducrX87+OkDRHwYmYqfAeQXi1zC2vgYA3JgGTjGmVGyqzYx8neFGej9Wa8A7kEPxStAa5iYAa5zpb+Dj/ixsV9gNvLASC42M4pP81CnCX76FLGavAE2KFoB0CdPdMhtrvQnwHPMidAHo6vMa404zkOdJvhpo2ExWZMz/aL3AGHrvXoFEPe50p8A0PusWQHkSmdGqLVmRtlRv3mQRvlk8sHbx670i1YAzPdHjEgv5mAEdR9hR33EamdGrJx+mAMnbJ3upRDODpDlbFf6Ae0/WOUuvzybmAGe8dVOnIhhk+WUp2nmaaYqfVwqBZjhpVKAGV4qBZjhpVKAGV4qBZjhxYcCMC5AiEvg3wU+iiErd9OZPpFsMv2bK33tjee0bl7aKW1zkwK0PCiA+cGEiWwePkAZgnw8qtADS+DuxEDxZgjClDOmfsE7Ec6MONe36w3xGQ91UqBMwWhmdaZfvC9gH6JDvJmCMRDVrADySmdGvCQO/m6jkCFVoPWu9ItWALwVRXSIN2cQBpcY+yUUDWdGLHdwJC/2UCeFoHIHs8DJSuLJHdw/ASEYbOFKfyYFhARN8SlnRlSYdtva9qyv9KVkxlHiKRguCt8E0nkNm670EUlaXvMt7eHF8TucmaXZO8ZMzKqg0En5p1dQKILzgKK3sPCmOKHIKbTUsPAo/pIrfcWDk0wylH/ywStlaL4YAtPb773woq8+We01cApUt5rUjpl5MQR+k/wWvoH9j+kNoiny9+ZiiDFZhNeLIayNYB9cDcMQ9iToQ1wN5SnGNMkqyTUzcTWeiOrR2F50WxV7NSx5dsZ8NcxLRPAE+vlyqLq3EMpzMDWMrw5nzHb3YeRPtzKYLof6GCCcBJ14OXT2SPw6V16djImkzW2Mf+6Jlzbz1qBeD4dp+18+2iZg5BHGq3w+eHUxFmcwGmMz9fSLBS9q04kNsL70jp9a1tOd08MEER7D9CfBsQekSuDDWHNRH3So39LDFDFezv+ZAuBTrmYBqiRRmQow4EmiEgF4aeIwm6gTH09p4pS1LBS3qBdMLdLEqd/CN2mKOS9p4lzvTtQjcSiPT4Fp4iwSRV7rwscpUSTs0NEahyeS7jcKEIOaKDJgbHjRJI8nNhc+RqCPmTHdbQeN/UAu+skItEoVqy6vwBoLu/EPmel7ShVLnfcz2wTq1PYqiA0wBS6TzxV56FuBmyyaekM3E8kbBOfYvToqHrPNGu4zWTR8M4+KYMoaGIqHTbJo9Qg38WZyW+lJsmglUCju4VW4NcwhmTwcYb7u3DaaNkPnnzi46eLFJdxn4dmPUYTy7p49GkEGPXQ26DpTarQk2wVjWelswOnwYMQKkwtdpaQ3PLO3g14c5JE9H9S0ZD6SpNOe1imRjvxf2XV+Ot1Ngydj8Oq94ckYc3a2pNzR0ydjlHCMhIVpJbdlZspOHojghDZrp9E8cvfbo1G67CrJZpP3aJQPH0wucPwDqRI80J27H2aQc/N3vuybZ+OSgBm3Z+PQsdRBE5+NC8WDPAUqwO7PReL8YK99k0cUtYfw8HBknvsI/fpw5OQaniyvzD2R2OIja4oTQPiF/FErT8bMm8ZzvnpeJVk20JJHdNhAPB2Limqq88TTsWSauanFOUTOGerxaHb6dvPj0Xicah/ZZJAlTL2D8ng0zhReH4+GE1ZfPB6NwE2IhdaaFKQjbGq4Ifagvunb5+PVtN7avaOdGvJIX8/Ho2/ARtbCQU2F7EppAkvp20LiGis5PSoAjOjfEqM58xYQPjXn2k6+wsu9QsWqszKKaUf/pTralHsYR1RtZONuXDl9KQBmLKNGM/ztK7pvoa4/zd35oVjt6w6Gd2BH5AnGxPWMemoGI2FIU6tFBKwvBaCMNGk2MK2lUu2bcngW0enVvaz0HXAN5wSQdpV5JrqGUROjOZYlnwcFSEy/MiZG6WUMOayWAmzT0gw+tsAOtZzWtmIQBmXOhNPA/iSdUJzJkc2HAuDzr7Qscj/tx+qcH59mvxkUJ3Jk6xvATHBejqXg8qwgjkma1MMVcM7mBEO4KgDyoM/0ejd4YuGTK3JM/eea5OpLcBJNZ3TkI7o8AIHB/4AnEZNMrgpAvWeQyn9E5ncwg1HJLwiZvGVi7znSi6U5NB5NqGJkiis5CRq5W99Y4jnTVS4XBcCbPZShBr6/q3sZU4EjsGHMsS9KXMbMuIG+RaoE2kBMQwOs63b71qLWUQbluZlyEuVVAFUPg/OrI4EFKAK6ibn+/IyybOA7vx1pouY8DTGe2Bd2RNXiJQvy9015il6OfApgkr/9kSaMh+TcqCZK+Tb+IoCWvjxToSpJPN21aALF+/EUHbw8OScafXeWDHkUAD1u+C4SMetsC5piX5SNdXOXojNou31bqBDrUDztMDrUWgv/bjD85p8Yxt7N3z4sfNOuIPOjBpk2pDLlrhMa0AbmnO8KNKNy8g+6F7Gm22NmowDqlU4n8zZXocVqG3P2tADas3MdE+0b96Z2KyFXAfAbbji2k3yRaPatbb8XgLXzMIedMncmWIunh+FGfAAGkRAKsET9Rp00xNpiO14+3Hcu3bKgwp9h9LEeQxz4gjEPMOq7YiQrzEpf3CJCwAa94HJUegzfIACOeYfAjHB72R3mrYTybjQKld2ug4Xx8Z3Qslb0Wlx0x6to315f2phuQCNLcnffnB2r7IL7GAzrxlms6njPmBON7YIJELiXJnra8UomcUbh9/MrJEijhTHwZBUnaUUBI30bBqsquwLMUGW3x4wG5sSDTdaxyQum4vqACNdyKLGinfA4xnsevgr+gO5g9N1jR+FNG/g3wjT0yp1LZvKUo6nLd2X6zcmYch2zbnlLvFyhQoUKFSpUqFChQoUKFSpUqFAS/g+i02juDq3L5QAAAABJRU5ErkJggg==;fontColor=#4277bb;" parent="1" vertex="1">
          <mxGeometry x="90" y="460.5" width="69" height="69" as="geometry" />
        </mxCell>
        <mxCell id="fXSXnaFAM1KutNhnym3G-8" value="&lt;font style=&quot;font-size: 20px;&quot;&gt;Red Hat OpenShift AI&lt;/font&gt;" style="rounded=1;whiteSpace=wrap;html=1;fillColor=#db212e;" parent="1" vertex="1">
          <mxGeometry x="400" y="410" width="400" height="60" as="geometry" />
        </mxCell>
        <mxCell id="fXSXnaFAM1KutNhnym3G-10" style="edgeStyle=orthogonalEdgeStyle;rounded=0;orthogonalLoop=1;jettySize=auto;html=1;exitX=0;exitY=0.5;exitDx=0;exitDy=0;startArrow=classic;startFill=1;" parent="1" source="yRxVq_1gK0lk5HWuicpu-101" target="yRxVq_1gK0lk5HWuicpu-102" edge="1">
          <mxGeometry relative="1" as="geometry" />
        </mxCell>
      </root>
    </mxGraphModel>
  </diagram>
</mxfile>
